<svg width="41" height="41" viewBox="0 0 41 41" fill="none" xmlns="http://www.w3.org/2000/svg">
<path d="M27 0.875C28.0356 0.875 28.875 1.71447 28.875 2.75V4.625H38.25V15.875H34.4649L39.6133 30.0198C39.9437 30.8652 40.125 31.7855 40.125 32.7481C40.125 36.8904 36.7671 40.2481 32.625 40.2481C29.1309 40.2481 26.1951 37.8588 25.3618 34.625H17.3888C16.5561 37.8597 13.6197 40.25 10.125 40.25C6.47908 40.25 3.44077 37.6484 2.76514 34.2005C1.56742 33.5742 0.75 32.3201 0.75 30.875V12.125C0.75 11.0895 1.58947 10.25 2.625 10.25H15.75C16.7856 10.25 17.625 11.0895 17.625 12.125V21.5C17.625 22.5356 18.4644 23.375 19.5 23.375H23.25C24.2856 23.375 25.125 22.5356 25.125 21.5V4.625H19.5V0.875H27ZM10.125 29C8.05393 29 6.375 30.6789 6.375 32.75C6.375 34.8211 8.05393 36.5 10.125 36.5C12.1961 36.5 13.875 34.8211 13.875 32.75C13.875 30.6789 12.1961 29 10.125 29ZM32.625 28.9981C30.5539 28.9981 28.875 30.677 28.875 32.7481C28.875 34.8193 30.5539 36.4981 32.625 36.4981C34.6961 36.4981 36.375 34.8193 36.375 32.7481C36.375 32.2976 36.2955 31.8654 36.1498 31.4653L36.1191 31.3839C35.5734 29.9874 34.2148 28.9981 32.625 28.9981ZM30.4744 15.875H28.875V21.5C28.875 24.6067 26.3567 27.125 23.25 27.125H19.5C16.3933 27.125 13.875 24.6067 13.875 21.5H4.5V27.7891C5.87426 26.2321 7.88496 25.25 10.125 25.25C13.6197 25.25 16.5561 27.6402 17.3888 30.875H25.3609C26.1928 27.6393 29.1296 25.2481 32.625 25.2481C33.069 25.2481 33.504 25.2868 33.9268 25.3608L30.4744 15.875ZM13.875 14H4.5V17.75H13.875V14ZM34.5 8.375H28.875V12.125H34.5V8.375Z" fill="white" fill-opacity="0.5"/>
</svg>
