<svg width="148" height="148" viewBox="0 0 148 148" fill="none" xmlns="http://www.w3.org/2000/svg">
<path opacity="0.5" d="M73.75 147.5C33.019 147.5 0 114.481 0 73.75C0 33.019 33.019 0 73.75 0C114.481 0 147.5 33.019 147.5 73.75C147.5 114.481 114.481 147.5 73.75 147.5ZM73.75 132.75C106.335 132.75 132.75 106.335 132.75 73.75C132.75 41.1652 106.335 14.75 73.75 14.75C41.1652 14.75 14.75 41.1652 14.75 73.75C14.75 106.335 41.1652 132.75 73.75 132.75ZM66.375 95.875H81.125V110.625H66.375V95.875ZM66.375 36.875H81.125V81.125H66.375V36.875Z" fill="white"/>
</svg>
