<svg width="15" height="17" viewBox="0 0 15 17" fill="none" xmlns="http://www.w3.org/2000/svg">
<path d="M14.0247 3.46243H11.2059V2.75363C11.2059 2.16021 11.0054 1.66019 10.6043 1.25359C10.2032 0.846989 9.70042 0.643687 9.09601 0.643687H6.29374C5.68933 0.643687 5.18658 0.846989 4.78547 1.25359C4.38436 1.66019 4.1838 2.16021 4.1838 2.75363V3.46243H1.36506C1.15626 3.46243 0.985928 3.52562 0.854057 3.652C0.722186 3.77838 0.65625 3.94596 0.65625 4.15476C0.65625 4.37454 0.722186 4.54762 0.854057 4.674C0.985928 4.80038 1.15626 4.86357 1.36506 4.86357H2.07387V14.0121C2.07387 14.6056 2.27442 15.1056 2.67553 15.5122C3.07664 15.9188 3.5794 16.1221 4.1838 16.1221H11.2059C11.8104 16.1221 12.3131 15.9188 12.7142 15.5122C13.1153 15.1056 13.3159 14.6056 13.3159 14.0121V4.86357H14.0247C14.2335 4.86357 14.4038 4.80038 14.5357 4.674C14.6676 4.54762 14.7335 4.37454 14.7335 4.15476C14.7335 3.94596 14.6676 3.77838 14.5357 3.652C14.4038 3.52562 14.2335 3.46243 14.0247 3.46243ZM5.58494 2.75363C5.58494 2.54483 5.64812 2.3745 5.7745 2.24263C5.90088 2.11075 6.07396 2.04482 6.29374 2.04482H9.09601C9.31579 2.04482 9.48887 2.11075 9.61525 2.24263C9.74163 2.3745 9.80482 2.54483 9.80482 2.75363V3.46243H5.58494V2.75363ZM11.9148 14.0121C11.9148 14.2209 11.8516 14.3885 11.7252 14.5149C11.5988 14.6413 11.4257 14.7045 11.2059 14.7045H4.1838C3.96402 14.7045 3.79094 14.6413 3.66456 14.5149C3.53819 14.3885 3.475 14.2209 3.475 14.0121V4.86357H11.9148V14.0121ZM6.29374 6.97351C6.07396 6.97351 5.90088 7.03669 5.7745 7.16307C5.64812 7.28945 5.58494 7.46253 5.58494 7.68231V11.9022C5.58494 12.111 5.64812 12.2786 5.7745 12.405C5.90088 12.5313 6.07396 12.5945 6.29374 12.5945C6.50254 12.5945 6.67013 12.5313 6.7965 12.405C6.92288 12.2786 6.98607 12.111 6.98607 11.9022V7.68231C6.98607 7.46253 6.92288 7.28945 6.7965 7.16307C6.67013 7.03669 6.50254 6.97351 6.29374 6.97351ZM9.09601 6.97351C8.88721 6.97351 8.71962 7.03669 8.59325 7.16307C8.46687 7.28945 8.40368 7.46253 8.40368 7.68231V11.9022C8.40368 12.111 8.46687 12.2786 8.59325 12.405C8.71962 12.5313 8.88721 12.5945 9.09601 12.5945C9.31579 12.5945 9.48887 12.5313 9.61525 12.405C9.74163 12.2786 9.80482 12.111 9.80482 11.9022V7.68231C9.80482 7.46253 9.74163 7.28945 9.61525 7.16307C9.48887 7.03669 9.31579 6.97351 9.09601 6.97351Z" fill="#E82646"/>
</svg>
