<svg width="31" height="30" viewBox="0 0 31 30" fill="none" xmlns="http://www.w3.org/2000/svg">
<g clip-path="url(#clip0_1_319)">
<path d="M15.0979 29.2402C22.9724 29.2402 29.356 22.8566 29.356 14.982C29.356 7.10747 22.9724 0.723877 15.0979 0.723877C7.22331 0.723877 0.839722 7.10747 0.839722 14.982C0.839722 22.8566 7.22331 29.2402 15.0979 29.2402Z" stroke="white" stroke-width="1.44753" stroke-miterlimit="10"/>
<path d="M15.0978 13.8963C17.3163 13.8963 19.1147 12.0979 19.1147 9.87944C19.1147 7.66097 17.3163 5.86255 15.0978 5.86255C12.8794 5.86255 11.0809 7.66097 11.0809 9.87944C11.0809 12.0979 12.8794 13.8963 15.0978 13.8963Z" stroke="white" stroke-width="1.44753" stroke-miterlimit="10"/>
<path d="M4.71191 24.7891C5.9785 19.8313 10.1401 16.1763 15.0979 16.1763C20.0557 16.1763 24.2173 19.8313 25.4839 24.7529" stroke="white" stroke-width="1.44753" stroke-miterlimit="10"/>
</g>
<defs>
<clipPath id="clip0_1_319">
<rect width="30" height="30" fill="white" transform="translate(0.115967)"/>
</clipPath>
</defs>
</svg>
