<svg width="46" height="30" viewBox="0 0 46 30" fill="none" xmlns="http://www.w3.org/2000/svg">
<path d="M30.1709 18.5166C29.1544 17.6924 28.3577 17.3078 27.6709 17.3078C26.8467 17.3078 26.2973 17.8572 25.7204 18.4342L25.528 18.6265C25.4456 18.7089 25.3632 18.7364 25.2259 18.7364C24.7313 18.7364 23.7149 18.2693 21.5171 16.099C18.4951 13.077 18.7973 12.2803 18.9896 12.088L19.1819 11.8957C20.2259 10.8517 21.1599 9.97262 19.127 7.44515C18.4127 6.56603 17.7259 6.12646 17.0116 6.12646C16.05 6.12646 15.3083 6.8957 14.6489 7.58251C14.539 7.6924 14.4291 7.80229 14.3193 7.91218C13.5775 8.65394 13.5775 10.2473 14.3193 12.1979C15.116 14.3408 16.7368 16.6759 18.8248 18.7638C22.561 22.5276 26.105 23.8462 28.0006 23.8462C28.7423 23.8462 29.3193 23.6539 29.6764 23.2968C29.7863 23.1869 29.8962 23.077 30.0061 22.9671C30.7204 22.3078 31.5171 21.5386 31.4621 20.5495C31.4346 19.8627 31.0226 19.2034 30.1709 18.5166ZM29.594 22.555C29.4841 22.6649 29.3467 22.7748 29.2368 22.8847C28.9896 23.132 28.55 23.2693 27.9731 23.2693C26.1874 23.2693 22.8357 22.0056 19.2368 18.3792C17.2039 16.3462 15.6654 14.0935 14.8687 12.0331C14.2643 10.3572 14.2094 8.92866 14.7588 8.37921C14.8687 8.26932 14.9786 8.15943 15.0885 8.02207C15.6654 7.41767 16.2973 6.75833 17.0116 6.75833C17.5335 6.75833 18.083 7.11548 18.6599 7.85723C20.3357 9.94515 19.7588 10.5495 18.7698 11.5111L18.5775 11.7034C17.7808 12.5001 18.605 14.0386 21.105 16.5386C23.0006 18.4342 24.3467 19.3682 25.2259 19.3682C25.528 19.3682 25.7478 19.2583 25.9401 19.0935L26.1324 18.9012C26.6544 18.3517 27.0665 17.9397 27.6709 17.9397C28.1929 17.9397 28.9072 18.2968 29.7863 19.0111C30.4731 19.5605 30.8577 20.11 30.8852 20.6045C30.9127 21.3188 30.1984 21.9781 29.594 22.555Z" fill="black" stroke="white" stroke-width="0.549451" stroke-miterlimit="10"/>
<path d="M22.6161 29.4507C30.5969 29.4507 37.0666 22.9809 37.0666 15.0001C37.0666 7.01929 30.5969 0.549561 22.6161 0.549561C14.6353 0.549561 8.16553 7.01929 8.16553 15.0001C8.16553 22.9809 14.6353 29.4507 22.6161 29.4507Z" stroke="white" stroke-width="1.0989" stroke-miterlimit="10"/>
</svg>
