<svg width="33" height="36" viewBox="0 0 33 36" fill="none" xmlns="http://www.w3.org/2000/svg">
<g clip-path="url(#clip0_1_325)">
<path d="M21.5374 33.4543C26.4852 33.4543 30.4962 29.443 30.4962 24.4947C30.4962 19.5465 26.4852 15.5352 21.5374 15.5352C16.5896 15.5352 12.5786 19.5465 12.5786 24.4947C12.5786 29.443 16.5896 33.4543 21.5374 33.4543Z" fill="#F7BC06"/>
<path d="M4.92707 25.6483C3.15838 25.6483 1.73574 24.2255 1.73574 22.4566V7.99826H6.54196V11.1899C6.54196 11.6513 6.88801 11.9974 7.34941 11.9974C7.81081 11.9974 8.15685 11.6513 8.15685 11.1899V7.99826H14.578V11.1899C14.578 11.6513 14.924 11.9974 15.3854 11.9974C15.8084 11.9974 16.1929 11.6513 16.1929 11.1899V7.99826H20.9991V13.9585C21.1529 13.9585 21.3067 13.9585 21.4605 13.9585C21.845 13.9585 22.2295 13.9969 22.5755 14.0354V6.42168H16.1544V4.80664C16.1544 2.15338 14.0012 0 11.3482 0C8.69515 0 6.54196 2.15338 6.54196 4.80664V6.42168H0.12085V22.4566C0.12085 25.1099 2.27404 27.2633 4.92707 27.2633H11.079C10.9637 26.7249 10.8483 26.2251 10.8099 25.6483H4.92707ZM8.1184 4.80664C8.1184 3.0378 9.54105 1.61503 11.3097 1.61503C13.0784 1.61503 14.5011 3.0378 14.5011 4.80664V6.42168H8.1184V4.80664Z" fill="white"/>
<path d="M22.5371 13.9968C22.1526 13.9584 21.8066 13.9199 21.4221 13.9199C21.2683 13.9199 21.1145 13.9199 20.9607 13.9199C15.2701 14.2275 10.7715 18.8804 10.7715 24.6099C10.7715 24.956 10.7715 25.3021 10.8099 25.6097C10.8484 26.148 10.9637 26.6864 11.0791 27.2247C12.2326 31.8391 16.4236 35.2614 21.4221 35.2614C27.3049 35.2614 32.1111 30.4932 32.1111 24.5714C32.1111 19.1111 27.9201 14.5736 22.5371 13.9968ZM21.4221 33.0696C17.6924 33.0696 14.5011 30.6086 13.3861 27.2247C13.2323 26.7248 13.1169 26.1865 13.04 25.6097C13.0016 25.2636 12.9631 24.956 12.9631 24.6099C12.9631 20.1109 16.5005 16.4194 20.9222 16.1887C21.076 16.1887 21.2298 16.1887 21.3836 16.1887C21.7681 16.1887 22.1526 16.2271 22.4987 16.2656C26.6897 16.8039 29.881 20.3416 29.881 24.6099C29.881 29.2627 26.0745 33.0696 21.4221 33.0696Z" fill="white"/>
</g>
<defs>
<clipPath id="clip0_1_325">
<rect width="32" height="35.3" fill="white" transform="translate(0.115967)"/>
</clipPath>
</defs>
</svg>
