<svg width="19" height="17" viewBox="0 0 19 17" fill="none" xmlns="http://www.w3.org/2000/svg">
<g clip-path="url(#clip0_1_704)">
<path d="M10.3088 1.27277C10.3526 1.28658 10.4095 1.23421 10.3625 1.18794C10.3194 1.19529 10.277 1.20641 10.2349 1.2222C10.2623 1.23367 10.2814 1.25519 10.3088 1.27277ZM10.0923 0.842529C10.0352 0.860463 9.97979 0.889875 9.94933 0.936684C9.91811 0.980981 9.91354 1.03299 9.9303 1.08894C9.96361 1.03227 9.99008 1.02008 10.016 1.00609C10.0443 0.989769 10.07 0.976677 10.141 0.927358C10.2199 0.944037 10.236 1.01864 10.1983 1.04859C10.2395 1.03604 10.2577 1.12284 10.3387 1.10006C10.3546 0.972373 10.2124 0.872479 10.0651 0.917494C10.0441 0.887365 10.0786 0.86136 10.0923 0.842529ZM4.59743 5.77101L4.65397 5.77747C4.63798 5.77191 4.61856 5.77012 4.59743 5.77101ZM1.76765 8.15589C1.73662 8.1315 1.71587 8.12881 1.70654 8.13527C1.7391 8.15428 1.76651 8.16917 1.76765 8.15589ZM2.31689 8.84295C2.30509 8.82807 2.29538 8.81569 2.28472 8.80224C2.29119 8.8234 2.30128 8.84116 2.31689 8.84295ZM4.59743 5.77101L4.45198 5.75326C4.44817 5.79289 4.52794 5.77191 4.59743 5.77101ZM9.48139 1.47919C9.489 1.45157 9.48938 1.42593 9.48557 1.40064C9.47967 1.42342 9.47339 1.44512 9.46558 1.467C9.4713 1.47094 9.47605 1.47435 9.48139 1.47919ZM6.73766 5.3336L6.75784 5.31835C6.75422 5.30329 6.74794 5.28679 6.73918 5.26975C6.74051 5.2902 6.74013 5.31172 6.73766 5.3336ZM7.49156 3.95339C7.46947 3.98567 7.55914 4.04216 7.59436 4.07462C7.56504 4.03696 7.55933 4.00288 7.56771 3.96953C7.54962 3.96056 7.52544 3.955 7.49156 3.95339ZM8.9152 1.63701L8.92415 1.58841C8.92263 1.60114 8.91653 1.62159 8.9152 1.63701ZM5.61843 5.51186C5.6131 5.49752 5.60472 5.48532 5.59672 5.47833C5.59882 5.49106 5.607 5.502 5.61843 5.51186ZM11.0027 3.12752C11.0101 3.12555 11.0135 3.12178 11.0196 3.11945C11.0054 3.11514 10.9972 3.1155 11.0027 3.12752ZM10.5606 1.15566L10.5785 1.17754C10.5981 1.17162 10.6174 1.16606 10.6351 1.15781L10.5606 1.15566ZM3.40376 10.0214C3.40205 10.0187 3.40148 10.0178 3.39995 10.0151C3.36036 9.99468 3.37939 10.0096 3.40376 10.0214ZM10.8487 15.1265C10.7411 14.9716 11.1533 15.1466 10.9738 14.9447C10.9757 14.9902 10.6882 14.9809 10.8487 15.1265ZM9.44845 1.51255C9.43893 1.53353 9.42884 1.55451 9.41704 1.57496C9.43474 1.54806 9.44445 1.52905 9.44845 1.51255ZM10.9738 14.9447L10.9741 14.944L10.9551 14.9239C10.9629 14.9325 10.9673 14.9373 10.9738 14.9447ZM4.34137 12.6701C4.36117 12.6658 4.37793 12.6541 4.39411 12.6416C4.38307 12.641 4.36841 12.647 4.34137 12.6701ZM4.2498 10.5133L4.28997 10.5691C4.27702 10.5442 4.26313 10.5271 4.2498 10.5133ZM4.24161 14.0607C4.22715 14.0948 4.21039 14.1045 4.21572 14.1552C4.22182 14.1516 4.22638 14.1477 4.23114 14.1427C4.21991 14.1226 4.21744 14.0984 4.24161 14.0607ZM3.98327 15.4831C3.99279 15.4768 4.0006 15.4678 4.00935 15.4603C4.01012 15.4459 4.01107 15.4291 4.01183 15.4144L3.98327 15.4831ZM14.3056 6.24286C14.2766 6.21022 14.2608 6.1765 14.2494 6.1435C14.262 6.21775 14.0352 6.21255 14.3056 6.24286ZM9.42713 1.4548C9.44731 1.47363 9.45378 1.49031 9.44845 1.51255C9.45454 1.49695 9.46006 1.4817 9.46558 1.467C9.4534 1.45642 9.44045 1.4496 9.42713 1.4548ZM5.0631 14.253L5.00636 14.4764C5.02807 14.4149 5.04844 14.3337 5.0631 14.253ZM14.3463 11.4301L14.3242 11.3803C14.3254 11.4005 14.3318 11.4185 14.3463 11.4301ZM4.89994 15.1495C4.85539 15.1837 4.82607 15.223 4.8038 15.265C4.81027 15.2757 4.81522 15.2874 4.82627 15.2957L4.89994 15.1495Z" fill="#F7BC06"/>
<path d="M12.3141 5.78743C12.4547 5.94507 12.5265 5.94076 12.5575 5.9144C12.5911 5.88553 12.6032 5.82814 12.659 5.82096C12.8429 5.92534 12.8839 5.95098 12.8804 5.9951C12.8795 6.03492 12.8338 6.07437 12.9006 6.13409C12.9773 6.15077 13.0522 6.15454 13.1218 6.14898C13.1628 6.14754 13.1746 6.13983 13.1959 6.13409C13.2155 6.12782 13.2347 6.12154 13.2536 6.11562C13.329 6.09141 13.3981 6.0715 13.4615 6.0828C13.4677 6.10576 13.4912 6.11688 13.458 6.14001C13.6549 6.06056 13.9957 6.20834 14.2266 6.10629C14.2405 6.1201 14.2466 6.13212 14.2491 6.14252C14.2251 6.07222 14.2302 6.00479 14.2445 5.95816C14.3477 5.97 14.4482 5.90149 14.4737 5.99241C14.4111 5.98129 14.4004 6.01519 14.3667 6.03779L14.4802 6.01519C14.5582 6.15167 14.3263 6.03779 14.3123 6.12889C14.5287 6.11759 14.7893 6.04908 14.9451 6.10594C14.9601 6.23112 14.5622 6.095 14.7606 6.23165L14.5184 6.15149C14.6795 6.36777 14.369 6.11741 14.5127 6.34482C14.8354 6.42463 14.8891 6.33352 15.2108 6.41351C15.2948 6.35666 15.2017 6.3111 15.2859 6.25407C15.7694 6.1974 15.6051 6.60737 15.9718 6.49349C16.0727 6.42534 16.1306 6.27739 16.3615 6.39145L16.2575 6.51645C16.573 6.5733 16.4691 6.34536 16.7876 6.48255C16.7202 6.52811 16.5309 6.49349 16.5766 6.51627C16.7756 6.65347 16.7409 6.45978 16.9065 6.48255L16.9222 6.60791C17.2631 6.63517 17.649 6.59895 18.0269 6.62818C18.0006 6.66118 17.9306 6.69023 18.0126 6.73919C18.1187 6.72233 18.2101 6.79245 18.2255 6.89181C18.242 6.99385 18.1727 7.06308 18.1082 7.07707C18.1145 7.095 18.1299 7.10845 18.1269 7.13679L18.1029 7.23238C18.0726 7.25838 18.0132 7.24816 18.03 7.2044C17.8719 7.29371 18.0728 7.25838 18.0418 7.34465C17.9742 7.4171 17.9003 7.39002 17.9233 7.32474C17.7629 7.5968 17.42 8.05538 17.0977 8.19401L17.1211 8.12891C16.9035 8.26915 17.071 8.47611 16.8258 8.56417L16.845 8.52041C16.4076 8.85847 16.0329 9.33713 15.6072 9.50607C15.6611 9.66837 15.1575 9.82458 15.2883 9.9998C14.9801 10.1365 15.0182 10.0488 14.6414 10.2964C14.6056 10.3214 14.5539 10.4169 14.5426 10.4941C14.5257 10.5764 14.519 10.6608 14.4859 10.7613L14.3755 10.7233C14.3696 10.8359 14.3842 10.944 14.4145 11.0423C14.3618 11.0879 14.314 11.1406 14.2696 11.1999C14.277 11.2369 14.2854 11.2731 14.2967 11.3086C14.3077 11.3465 14.3151 11.3551 14.3244 11.3798C14.3227 11.3402 14.3526 11.2231 14.3897 11.2373C14.4135 11.3264 14.4253 11.3642 14.4293 11.4257C14.4335 11.483 14.4301 11.5409 14.4221 11.5932C14.4061 11.698 14.3717 11.7803 14.3423 11.7875L14.528 12.2534C14.4794 12.2502 14.4488 12.1722 14.4075 12.1132C14.5723 12.3511 14.2942 12.1795 14.4451 12.3978C14.4657 12.3619 14.5171 12.4037 14.5415 12.4053C14.4929 12.5341 14.5409 12.8015 14.6064 12.9946L14.5198 12.9695C14.5645 13.3302 14.6951 13.7166 14.7667 14.1178C14.7777 13.9679 14.9219 13.9787 14.9565 14.0942L14.8428 14.1609C14.9323 14.2245 14.8668 14.0305 14.9875 14.1715C15.0007 14.3235 14.8668 14.2947 14.8114 14.215L14.887 14.3903C14.8524 14.4069 14.8253 14.3673 14.7768 14.3637C14.8663 14.4261 14.7113 14.6978 14.8628 14.7844L14.8284 14.8006C14.9003 15.2016 14.9755 15.3766 15.041 15.7021C15.0943 15.6968 15.121 15.7271 15.1473 15.769C15.1722 15.8069 15.2029 15.8772 15.244 15.8851C15.2345 15.9512 15.192 16.0031 15.1448 16.038C15.0974 16.0739 15.0464 16.097 14.9982 16.1218C14.9744 16.1616 14.9693 16.1794 14.9765 16.203C14.9816 16.2246 14.9976 16.2463 14.9784 16.2818C14.9403 16.2009 14.828 16.2036 14.8912 16.1406C14.8613 16.1421 14.8356 16.1408 14.8099 16.1343C14.8036 16.1324 14.7972 16.1308 14.7907 16.1293C14.7852 16.1286 14.7785 16.1279 14.7602 16.1196C14.7301 16.1076 14.7003 16.0958 14.6698 16.0838C14.5472 16.0366 14.4101 15.9907 14.1824 15.9202C14.2093 15.9762 14.2523 16.0158 14.2102 16.0305C14.1268 16.0063 14.0566 15.9109 14.0891 15.8772L14.1139 15.8788C13.5763 15.7681 13.1622 15.1047 12.6937 15.0891L12.7194 15.0911L12.2823 14.9875C12.1117 14.8851 12.4233 14.9794 12.3194 14.8637C11.8254 14.7922 11.6694 14.5167 11.2744 14.4363C11.208 14.2504 10.969 14.1374 10.7124 14.0296L10.519 13.9485C10.4758 13.9301 10.4326 13.9116 10.3901 13.8935C10.3351 13.8725 10.2797 13.8538 10.2239 13.8399C10.0008 13.7807 9.7847 13.7774 9.59546 13.7787C9.61469 13.7957 9.63354 13.8139 9.65143 13.8318C9.57147 13.8811 9.52121 13.889 9.46829 13.8883C9.44221 13.8885 9.41574 13.8852 9.38814 13.8867C9.36206 13.8868 9.32436 13.8946 9.31084 13.8974C9.32036 13.9067 9.32969 13.913 9.34702 13.9139C9.36644 13.9127 9.38833 13.9114 9.40584 13.9103C9.44125 13.9089 9.45896 13.9128 9.41765 13.9498C9.37043 13.9738 9.35292 13.9857 9.32855 13.9998L9.25678 14.0411L9.11057 14.1207C9.01195 14.1725 8.91105 14.2219 8.80863 14.2692C8.60359 14.3639 8.39189 14.4509 8.17733 14.5344C7.74841 14.7016 7.30864 14.8549 6.89038 15.0296C6.58635 15.1609 6.88581 15.405 6.43804 15.4546L6.48526 15.2974C6.22215 15.5079 5.91679 15.6578 5.61142 15.8045C5.45874 15.8779 5.30625 15.9505 5.15908 16.0294L5.04981 16.0901L5.01573 16.1096C5.00945 16.1135 5.00355 16.1182 4.99764 16.1238C4.97289 16.1374 4.94929 16.1568 4.91864 16.1693C4.93311 16.1437 4.93063 16.1076 4.94738 16.1053C4.92225 16.0685 4.90531 16.063 4.87218 16.0739C4.84058 16.085 4.79127 16.099 4.76824 16.1272C4.74178 16.0976 4.80117 16.0701 4.81088 16.0325C4.81602 16.0033 4.78385 16.0104 4.75187 16.0027C4.71969 15.9975 4.69266 15.9789 4.73549 15.9602C4.7492 15.9546 4.765 15.9625 4.77509 15.964C4.7473 15.9633 4.75072 15.9383 4.74254 15.9186C4.74235 15.9075 4.7393 15.8971 4.72864 15.8895C4.72293 15.8872 4.71741 15.8808 4.70922 15.8777C4.70104 15.8747 4.68885 15.8804 4.67629 15.8809C4.76462 15.669 4.70922 15.4365 4.80346 15.2654C4.70903 15.1272 4.93101 14.8811 4.77357 14.8165C4.94034 14.8605 4.98394 14.4358 4.93044 14.2774C4.97289 14.3345 5.00659 14.1596 5.06732 14.2281C5.09512 14.0619 5.09131 13.9048 4.99879 13.9197C5.25751 13.6469 4.94719 13.2791 5.23866 13.1492C5.23714 12.6419 5.25846 12.1759 5.2992 11.7263C5.46559 11.7697 5.22686 12.219 5.4081 12.2287C5.41153 12.0127 5.38792 11.8384 5.37802 11.6666C5.37307 11.5807 5.37155 11.4955 5.37859 11.4062C5.3824 11.3565 5.38697 11.3293 5.39763 11.2487C5.40543 11.1782 5.40772 11.1042 5.40277 11.0256C5.40163 10.9438 5.42295 10.9618 5.45112 11.0116C5.47816 11.0611 5.50119 11.1445 5.51395 11.1754C5.50138 11.0009 5.4536 10.8364 5.37478 10.6897C5.33537 10.6166 5.28816 10.5479 5.23409 10.4853C5.20706 10.4541 5.17774 10.4241 5.14823 10.3965L5.09131 10.3436C4.93996 10.2032 4.79108 10.0688 4.61422 9.96805C4.62622 9.95801 4.66943 9.97469 4.70808 9.99298C4.64735 9.94456 4.59366 9.85453 4.5455 9.91317L4.61556 9.94976C4.62717 10.1096 4.22471 9.90224 4.17274 9.93326C4.42537 9.87085 3.92734 9.63394 4.27783 9.58372C4.23004 9.55933 4.15751 9.54122 4.12952 9.58444C4.08478 9.52329 4.0884 9.48652 4.18606 9.498C3.95285 9.33982 3.96732 9.46213 3.78418 9.29176C3.81121 9.26683 3.85861 9.29122 3.90868 9.27866C3.764 9.24262 3.61874 9.20621 3.48528 9.04175C3.5106 9.03494 3.51308 8.99835 3.55915 9.0414C3.28367 8.80341 2.96612 8.75499 2.72225 8.43755C2.92348 8.40635 2.66018 8.3095 2.74376 8.19921L2.55643 8.08282L2.57166 8.18755C2.43573 8.05843 2.24116 8.0161 2.15492 7.8755L2.29847 7.93038L2.02051 7.71068L2.1296 7.88177C1.93865 7.80269 2.01899 8.01682 1.86269 7.82116C1.91029 7.84573 1.72562 7.69293 1.7121 7.57026L1.71286 7.57044C1.61292 7.53816 1.50916 7.5057 1.43168 7.38805C1.43796 7.33353 1.56208 7.30125 1.56665 7.26538C1.49888 7.27919 1.43929 7.23489 1.39912 7.16764C1.35781 7.10254 1.33401 7.02847 1.27442 6.9822C1.30469 7.01287 1.37894 7.00802 1.39417 7.00013C1.36295 6.98543 1.32678 6.96713 1.29841 6.94543C1.33611 6.88266 1.35533 6.88159 1.41092 6.90096C1.43891 6.82581 1.40026 6.82402 1.358 6.82133C1.31992 6.82223 1.28299 6.812 1.37551 6.72215C1.37323 6.7417 1.38922 6.74098 1.38446 6.77882C1.45281 6.68915 1.51697 6.60899 1.60968 6.54837C1.63233 6.53295 1.6588 6.52344 1.68355 6.50999C1.71058 6.5012 1.73761 6.49385 1.76636 6.4865C1.83966 6.4743 1.91333 6.46677 1.98796 6.46785C2.09457 6.58944 1.73818 6.53546 1.85412 6.63446C2.27086 6.55268 2.70016 6.3554 3.11176 6.33119L3.03371 6.32688C3.06112 6.13086 3.35107 6.37836 3.54316 6.26143C3.49499 6.28223 3.49328 6.37495 3.50356 6.35217C3.78684 6.34428 4.06612 6.22789 4.47924 6.11078L4.43432 6.16637C4.60508 6.187 4.87066 6.13212 5.05133 6.12979C5.09645 6.07437 5.19925 6.06827 5.12672 6.0064C5.42142 6.10665 5.67653 6.03402 5.92307 5.95672C6.04625 5.91799 6.16752 5.87817 6.29031 5.85827C6.3518 5.84822 6.41367 5.8432 6.47631 5.84589C6.50772 5.84715 6.53932 5.85037 6.57112 5.85575L6.61928 5.86562L6.68249 5.87512C6.66345 5.87889 6.64251 5.88499 6.62347 5.89216C6.60919 5.89826 6.59587 5.90543 6.58597 5.91207C6.56598 5.92552 6.55912 5.93718 6.58216 5.93413L6.6347 5.92104C6.65831 5.91512 6.68192 5.9101 6.70476 5.90256C6.75083 5.88911 6.79538 5.87172 6.83841 5.85199C6.92427 5.81253 7.00194 5.76017 7.06953 5.70027C6.98233 5.65848 6.97986 5.70475 6.85497 5.69453C6.88848 5.62476 6.96653 5.53097 7.03278 5.45421C6.98957 5.53922 7.00689 5.56522 7.0602 5.56235C7.11274 5.56038 7.19327 5.52003 7.2422 5.49026C7.21022 5.48936 7.20507 5.44686 7.17709 5.4395C7.31359 5.36795 7.26999 5.34356 7.23477 5.30661C7.19784 5.26931 7.15957 5.22107 7.27266 5.11723L7.30712 5.14987C7.33529 5.04585 7.32596 4.93358 7.39107 4.83745C7.50435 4.83781 7.38117 4.95743 7.45295 4.99886C7.52243 4.85377 7.42744 4.63695 7.58602 4.55015C7.57974 4.6226 7.53443 4.70994 7.52796 4.78222C7.70882 4.69147 7.69016 4.66242 7.76174 4.56593L7.75393 4.57508L7.92889 4.3561L7.86759 4.40417C7.72309 4.11507 8.01456 4.02037 7.98467 3.7076C8.0098 4.00997 8.04978 3.78598 8.14383 3.85197C8.20475 3.80391 8.28585 3.72554 8.30089 3.76571C8.2769 3.61327 8.46595 3.60645 8.42806 3.38945C8.46519 3.3977 8.49508 3.26929 8.56513 3.33386C8.61635 3.17388 8.48898 3.34193 8.45357 3.31C8.45909 3.02933 8.87202 2.83869 8.88744 2.43858C8.97121 2.12617 8.8863 2.02179 8.96778 1.73359C9.06735 1.66993 9.05117 1.86236 9.05117 1.86236C9.17492 1.74238 9.22232 1.63083 9.25468 1.47857C9.26934 1.51928 9.30875 1.5026 9.36758 1.47911C9.41536 1.36702 9.28419 1.35052 9.40775 1.23108C9.43212 1.27268 9.47514 1.33169 9.48504 1.40109C9.49399 1.36576 9.50103 1.32954 9.50693 1.29295C9.51322 1.25583 9.51207 1.23933 9.51493 1.20794C9.51836 1.18068 9.52692 1.15504 9.53473 1.12598C9.54768 1.10177 9.55948 1.07308 9.57909 1.0503C9.63982 1.08258 9.58651 1.16149 9.60365 1.21081C9.62497 1.16634 9.66514 1.11199 9.7154 1.06895C9.76299 1.02286 9.8163 0.983586 9.83172 0.931577C9.80069 0.927273 9.76623 0.917947 9.73234 0.917589C9.78489 0.899296 9.77727 0.989505 9.75347 1.01694C9.71559 1.06644 9.68722 1.07631 9.65162 1.06841C9.61907 1.06321 9.58404 1.04187 9.56995 1.02968C9.59013 1.00816 9.60955 0.983228 9.63506 0.965293C9.54139 0.891584 9.43783 0.966728 9.39461 1.07505C9.35254 1.17871 9.35577 1.32164 9.29752 1.41454L9.19662 1.26982L9.21356 1.51784C9.15512 1.54188 9.06088 1.53309 9.08848 1.42997C8.94741 1.53273 9.0763 1.57326 8.93694 1.65325C8.91809 1.66042 8.91429 1.65145 8.91486 1.63693L8.88783 1.78883C8.87164 1.74902 8.77607 1.76426 8.83909 1.69252C8.63272 1.89177 8.74504 2.12492 8.59065 2.16419L8.59255 2.14016C8.46804 2.49185 8.68012 2.2205 8.67308 2.52449L8.32868 2.57112L8.41607 2.652C8.39456 2.68428 8.35153 2.74777 8.31631 2.71602C8.32145 2.87564 8.37285 2.71549 8.40179 2.82022C8.22112 2.93966 8.20989 3.29189 8.02446 3.25136C8.07301 3.34695 8.16763 3.12331 8.13126 3.32363C7.92661 3.29046 8.05606 3.53974 7.89596 3.65093C7.8278 3.56216 7.95079 3.44343 7.79011 3.55463C7.89881 3.71729 7.60354 3.82973 7.56736 3.96962C7.68825 4.03329 7.47541 4.26769 7.40611 4.49832C7.37147 4.46568 7.1295 4.86453 6.98157 5.04047L6.96387 5.02505C7.0166 5.07329 7.01051 5.14538 6.98462 5.22537C6.96539 5.29764 6.91951 5.35701 6.87553 5.4135C6.82261 5.35163 6.81956 5.31432 6.82489 5.25066C6.80547 5.27559 6.78282 5.29836 6.75769 5.31845C6.76778 5.36382 6.75521 5.40597 6.69163 5.44955C6.68668 5.41583 6.67982 5.38283 6.67088 5.34983C6.61148 5.38104 6.58273 5.41601 6.44775 5.45349C6.3341 5.48936 6.21111 5.51752 6.06681 5.50407C6.06509 5.59714 6.32743 5.72681 6.04225 5.82778C6.02378 5.78007 5.99979 5.69758 6.07385 5.66691C6.04967 5.67677 5.99008 5.71999 5.93602 5.706L6.04091 5.60719C5.90841 5.58818 5.98513 5.68538 5.88252 5.69148C5.87376 5.62118 5.79971 5.65166 5.80561 5.5941C5.83055 5.58369 5.89851 5.61095 5.93316 5.57813C5.81684 5.58118 5.67215 5.55859 5.61828 5.51178C5.63446 5.55034 5.63274 5.60611 5.5505 5.62674C5.3348 5.66153 5.46331 5.55267 5.33157 5.53384C5.28664 5.58961 5.14062 5.55805 5.15318 5.66332C5.08979 5.67139 5.07037 5.62423 5.04162 5.59912C4.93672 5.66081 4.52018 5.68412 4.66372 5.77828L4.69361 5.78169C4.68866 5.78456 4.68219 5.78563 4.67591 5.78886C4.32466 5.94327 3.90354 5.83405 3.54601 5.92875L3.54125 5.8936C3.32974 5.96336 3.06055 5.98363 2.91681 6.08029C2.85247 6.08908 2.75499 6.03707 2.77612 5.99152C2.61392 6.04066 2.60136 6.08262 2.35215 6.05751C2.50998 5.9734 2.28609 6.01124 2.51664 5.98918C2.2958 5.98847 2.23831 5.93915 2.0209 6.06666C2.086 5.96605 1.8408 5.97591 1.74218 6.0168L1.90362 6.06038C1.84689 6.07491 1.79301 6.08352 1.74028 6.08944C1.71705 6.09141 1.68469 6.09553 1.64795 6.10163C1.61349 6.10791 1.57827 6.1106 1.54419 6.12046C1.55542 6.07312 1.57084 6.03151 1.58893 5.98614C1.41321 5.98811 1.24206 6.06146 1.12707 6.17283C1.0098 6.28295 0.939359 6.41763 0.901664 6.5464C0.831986 6.81416 0.854831 7.01896 0.807617 7.2878C0.877676 7.35666 0.861113 7.26681 0.856544 7.18181C0.857306 7.09339 0.869109 7.01215 0.928507 7.07438C0.930792 7.20135 0.935932 7.34214 0.959919 7.4709C0.983526 7.59841 1.03207 7.70279 1.06349 7.73597C1.21617 7.9684 1.38085 7.78385 1.55828 8.01C1.56285 7.95477 1.62148 7.85003 1.80881 7.96607C1.94455 8.11259 1.85755 8.26019 1.73933 8.19921C1.70125 8.16926 1.69421 8.14397 1.70658 8.135C1.64756 8.10236 1.5716 8.05807 1.59559 8.14469L1.64623 8.13178C1.68716 8.23006 1.89315 8.4128 1.79377 8.41926C1.93523 8.49243 1.89315 8.41298 1.82709 8.32134C1.97025 8.53906 2.12084 8.59376 2.28476 8.80198C2.27124 8.75678 2.27981 8.69491 2.31027 8.72342C2.55643 9.0231 2.4957 8.78099 2.70283 8.94509C2.76451 9.09233 2.54862 9.01988 2.78355 9.15958C2.86979 9.30019 2.7251 9.2636 2.652 9.24513C2.89016 9.34915 2.94328 9.58785 3.03332 9.69169L2.91453 9.63053C2.98554 9.66712 3.03085 9.70962 3.07711 9.75249L3.08701 9.64255C3.1308 9.70352 3.17687 9.74639 3.14965 9.77078C3.2475 9.78279 3.21133 9.62964 3.38 9.67806C3.42112 9.77616 3.63701 9.84915 3.57857 9.95335C3.37715 9.71482 3.51993 10.0579 3.31185 9.89237C3.35944 9.91712 3.40475 9.95962 3.44873 10.0208C3.44759 10.0375 3.4236 10.0305 3.4038 10.0213C3.54887 10.2955 3.59951 10.0228 3.82568 10.2338C3.74953 10.2528 3.78913 10.3689 3.83634 10.3933C3.74534 10.3079 3.87118 10.2769 3.9915 10.3194C4.10096 10.489 4.17769 10.4388 4.25003 10.5133L4.17997 10.4162C4.25669 10.3979 4.32371 10.4709 4.44041 10.5502C4.41242 10.5938 4.32256 10.4896 4.34274 10.5387C4.44079 10.5506 4.48324 10.63 4.52779 10.7179C4.56701 10.8025 4.63764 10.9141 4.68999 10.9205C4.68314 10.9869 4.59119 10.9944 4.58243 11.0369C4.64221 11.0545 4.62736 11.0934 4.60585 11.1157C4.59423 11.128 4.583 11.1384 4.57672 11.1497C4.56967 11.1687 4.57615 11.1515 4.57957 11.2313C4.68181 11.1763 4.66201 11.1607 4.71836 11.3445L4.72064 11.243C4.72064 11.2281 4.72255 11.2048 4.72064 11.1965C4.71912 11.1878 4.71817 11.1793 4.71569 11.1709C4.70808 11.1374 4.69475 11.1065 4.67705 11.0798C4.72959 11.1076 4.77661 11.1535 4.81107 11.2143C4.82687 11.1329 4.75339 11.0613 4.7532 11.0217C4.84591 11.0708 4.82173 11.081 4.88551 11.0202C4.83468 11.0952 4.85791 11.139 4.87523 11.2055C4.88913 11.2789 4.90055 11.382 4.83906 11.4659L4.61841 11.4243C4.46782 11.6926 4.6403 11.9478 4.51732 12.3079L4.57748 12.1955C4.65649 12.2591 4.54816 12.4254 4.56225 12.5507C4.4901 12.5276 4.44974 12.5981 4.39415 12.6417C4.45031 12.6444 4.33989 12.911 4.48172 12.9684L4.35417 13.1175C4.25993 13.4091 4.50323 13.4918 4.42594 13.7742C4.36121 13.6749 4.28487 13.7966 4.26221 13.5954C4.24413 13.691 4.21481 13.7748 4.26602 13.7846C4.20948 13.833 4.31742 14.066 4.23118 14.1426C4.25631 14.1881 4.33151 14.214 4.30581 14.3203C4.28868 14.3296 4.26926 14.314 4.26926 14.314C4.30581 14.3203 4.28849 14.4901 4.38767 14.4096C4.10287 14.667 4.25441 15.236 4.0092 15.4606C4.00121 15.5703 3.99245 15.6912 3.98369 15.8094C3.97151 15.962 4.00292 16.1152 4.05756 16.2328C4.03071 16.2247 4.02196 16.2446 4.01187 16.1946C4.04461 16.3824 4.14228 16.4037 4.21614 16.4191C4.29915 16.4337 4.36273 16.4473 4.4939 16.5736C4.54645 16.6709 4.49809 16.6614 4.43774 16.634C4.37758 16.6094 4.32371 16.5572 4.36045 16.6157C4.30676 16.7242 4.43717 16.8051 4.60908 16.8359C4.78461 16.87 4.97575 16.8436 5.14519 16.8759C5.12139 16.8874 5.09588 16.8944 5.07018 16.9023C5.13643 16.9172 5.2063 16.8992 5.27845 16.8756C5.34432 16.8458 5.4258 16.7972 5.45703 16.7628C5.54289 16.6865 5.63636 16.5976 5.75954 16.5459C5.75954 16.5459 5.7582 16.57 5.77553 16.5779C5.87985 16.3919 6.16904 16.2043 6.38207 16.0615C6.3558 16.1776 6.30173 16.1559 6.39102 16.2163C6.48735 16.1537 6.28745 16.0996 6.47974 15.9749C6.57112 15.986 6.74074 15.9514 6.80909 16.0291L6.61814 16.1297C6.78053 16.1939 6.86658 16.0018 6.97948 15.971L6.99414 16.0269C7.2818 15.8639 7.21631 15.7373 7.54014 15.5883L7.48626 15.5671C7.59154 15.3573 7.67112 15.5642 7.79353 15.3863L7.91614 15.4857C8.01418 15.3985 8.2512 15.1652 8.44424 15.0395C8.37933 15.1903 8.16458 15.3573 8.04616 15.4864C8.16058 15.4308 8.42825 15.2853 8.453 15.1941C8.41378 15.2289 8.37304 15.2882 8.31707 15.2914C8.40198 15.1238 8.55885 14.9842 8.78712 14.8739C8.88249 15.1369 9.41308 14.642 9.68322 14.7493C9.79536 14.6643 9.80069 14.6505 9.86142 14.6386C9.91263 14.63 9.96689 14.6433 10.0099 14.6693C10.0208 14.6758 10.0309 14.6831 10.0406 14.6908L10.1101 14.7349C10.1605 14.766 10.2115 14.7975 10.2633 14.8295C10.3676 14.8921 10.4771 14.953 10.5961 15.0074C10.5355 14.7362 10.7356 15.0696 10.8154 14.8614C10.9313 14.903 10.9711 14.9268 10.9738 14.9442L11.2394 15.2238C11.2862 15.3191 11.1118 15.2152 11.0975 15.2638C11.3279 15.3969 11.1518 15.3956 11.2809 15.5255C11.2873 15.4399 11.4193 15.4672 11.5406 15.561L11.3989 15.3766C11.7901 15.4385 11.5963 15.6824 11.9895 15.7464L11.849 15.7549C12.0416 15.8042 12.4846 16.0712 12.7407 15.9991C12.7588 16.0366 12.7694 16.1098 12.6857 16.0861C13.0849 16.3137 13.696 16.3747 13.9627 16.6293L13.905 16.6613C13.9896 16.6856 14.0888 16.6385 14.1582 16.7339C14.1423 16.7511 14.1008 16.766 14.1348 16.7863C14.1598 16.7882 14.2224 16.7927 14.2896 16.8065C14.3243 16.8139 14.3557 16.8218 14.3922 16.8359C14.4417 16.8544 14.4878 16.8745 14.5264 16.8976C14.472 16.8983 14.4153 16.8971 14.3566 16.8933C14.5137 16.9889 14.6894 17.0271 14.847 17.0244C15.0056 17.0167 15.1452 16.974 15.26 16.9086C15.4905 16.7764 15.6314 16.587 15.7466 16.3641C15.8164 16.4053 15.9413 16.32 16.0192 16.1539C16.0596 16.0723 16.0813 15.9747 16.0912 15.8804C16.0932 15.834 16.0936 15.788 16.0925 15.7446C16.0919 15.7161 16.0913 15.6894 16.091 15.6657L16.1153 15.6677C16.0462 15.1733 15.8265 14.8555 15.6788 14.4111C15.8067 14.0997 15.5798 13.4424 15.5977 12.9726C15.5804 13.0468 15.4669 12.9821 15.4357 12.9041C15.4498 12.7921 15.2674 12.6282 15.422 12.6207L15.426 12.6591C15.56 12.5549 15.4806 12.3424 15.4536 12.1707L15.2503 12.1745C15.3536 11.9277 15.2739 11.6392 15.195 11.3768C15.1762 11.3128 15.1577 11.2503 15.14 11.1908C15.1301 11.1641 15.1267 11.1363 15.1318 11.1115C15.1417 11.062 15.185 11.028 15.2523 11.0423C15.2396 11.0154 15.244 10.9894 15.2531 10.9645C15.2841 10.9191 15.3268 10.864 15.3489 10.8104L15.4197 10.8872C15.6695 10.694 15.794 10.5975 16.0609 10.3187L16.0565 10.4239C16.2219 10.281 16.0424 10.028 16.1863 9.88753L16.3432 9.95514C16.6217 9.69599 17.0042 9.53082 17.1794 9.17788C17.1912 9.19796 17.2155 9.23688 17.1746 9.28297C17.3096 9.1646 17.7611 8.8877 17.559 8.78279C17.6625 8.87676 17.858 8.52669 17.9652 8.34483L18.0157 8.43809C18.0488 8.22934 18.0271 8.20046 18.1792 8.01144C18.2312 7.98185 18.2755 8.03475 18.2005 8.06793C18.3803 7.97611 18.2401 7.89935 18.4505 7.78045L18.4341 7.88464C18.5849 7.75695 18.548 7.74314 18.5725 7.61635C18.5861 7.59124 18.6167 7.55555 18.6542 7.51771C18.6932 7.48328 18.7271 7.43952 18.7679 7.40257C18.8423 7.32474 18.9107 7.24691 18.9617 7.2374C18.9209 7.18234 18.8726 7.03869 18.884 6.89611C18.9167 6.87226 18.9485 6.92481 18.9588 6.95404C18.9847 6.72466 18.8707 6.56541 18.7641 6.46336C18.6519 6.35719 18.5442 6.29478 18.4288 6.18108C18.4393 6.14916 18.4282 6.12315 18.4065 6.10325C18.5891 6.18126 18.7193 6.3068 18.7898 6.40167C18.8632 6.49654 18.8844 6.562 18.8768 6.54981C18.9204 6.53008 18.9082 6.4483 18.9059 6.38965C18.9015 6.33478 18.923 6.28797 19.0612 6.37782C18.951 6.26734 18.7705 6.15274 18.5779 6.0889C18.4812 6.05608 18.3846 6.03528 18.2936 6.01716C18.2485 6.00999 18.2045 6.00299 18.1617 5.99618C18.1135 5.98667 18.1006 5.9847 18.0709 5.97448C18.0621 5.96426 18.0536 5.95421 18.048 5.93915L18.0713 5.93197C18.0243 5.91619 17.9797 5.91888 17.9365 5.92857C17.8719 5.90436 17.8312 5.8875 17.767 5.87746C17.7539 5.79854 17.5268 5.80303 17.4202 5.78456C17.4137 5.8857 17.2757 5.85037 17.3945 5.95063C17.3785 5.9413 17.4166 5.94148 17.4885 5.94722C17.5051 5.9465 17.5243 5.94758 17.5357 5.94309C17.5333 5.94543 17.5302 5.94812 17.527 5.95081C17.5976 5.9587 17.6898 5.96892 17.7945 5.98058C17.7019 6.01967 17.6069 6.05016 17.4969 5.9786C17.432 6.03528 17.3614 6.09284 17.3223 6.11921C17.1971 5.95995 16.926 5.84607 16.8997 5.75479C16.5637 5.7659 16.1228 5.6861 15.888 5.84535C15.7911 5.85665 15.7892 5.77702 15.7591 5.74277C15.8159 5.73129 15.8793 5.74295 15.9124 5.71999C15.719 5.74259 15.3582 5.66314 15.2935 5.78814C15.0681 5.69686 15.4439 5.68556 15.1183 5.66296L15.168 5.62889C14.5662 5.3328 14.0857 5.82204 13.4241 5.45708C13.4702 5.48021 13.4934 5.49115 13.5001 5.51447C13.4512 5.50012 13.4019 5.48721 13.3522 5.47555C13.3015 5.46354 13.2486 5.45349 13.2225 5.44435C13.1572 5.42426 13.0959 5.39485 13.0419 5.35503C12.9874 5.31486 12.9421 5.26787 12.9054 5.20726L12.7534 4.95026C12.5511 4.60754 12.3575 4.26195 12.271 3.88246C12.2069 3.67371 12.1157 3.69021 11.9931 3.60161L12.0744 3.51212L11.8505 3.36721C11.6146 3.12385 11.8459 2.75799 11.493 2.47499L11.4482 2.55336C11.3938 2.41814 11.1931 2.16347 11.2843 2.14787C11.2647 2.14052 11.1899 2.13908 11.1996 2.07183L11.2516 2.04278L10.993 1.76856C10.9034 1.50457 11.2274 1.70741 11.0499 1.34388C10.9593 1.22014 10.6939 1.03721 10.684 1.10392C10.7096 1.15916 10.7223 1.25708 10.6703 1.28631L10.5784 1.17745C10.4078 1.22928 10.1959 1.21117 10.2418 1.56214L10.4484 1.72552L10.4065 1.82864L10.3096 1.6554C10.2892 1.78865 10.3865 1.82201 10.4676 1.87222C10.4354 1.90809 10.4221 1.9506 10.4284 1.9992L10.6877 2.13334C10.6383 2.18715 10.5161 2.09891 10.5538 2.25225C10.6745 2.31538 10.645 2.09532 10.7747 2.2327C10.7547 2.36613 10.6806 2.36434 10.8036 2.45275C10.7712 2.48826 10.7322 2.47553 10.6899 2.43751C10.7937 2.51893 10.8552 2.70383 10.9679 2.71836C10.9332 2.8638 11.1756 3.05964 11.0197 3.11936C11.0728 3.13532 11.234 3.24813 11.2904 3.34103C11.0185 3.24974 11.4676 3.70455 11.2502 3.74795C11.48 3.80212 11.5672 4.18232 11.7772 4.36991C11.7576 4.3631 11.7184 4.35 11.7161 4.32597C11.7703 4.46138 11.741 4.52163 11.754 4.61866C11.8964 4.57311 12.0323 4.7598 12.1717 4.82992C12.1254 5.04818 11.9643 4.80679 11.8663 4.91421C11.9706 4.85593 12.1185 5.13893 12.1806 5.04298C12.1642 5.20116 12.1964 5.16529 12.1183 5.27917C12.2967 5.22268 12.2057 5.37871 12.3611 5.43125C12.3613 5.44506 12.3615 5.45744 12.3617 5.46856C12.3636 5.48452 12.3653 5.49887 12.3668 5.51142C12.3689 5.53742 12.3702 5.55769 12.3695 5.57455C12.3679 5.60826 12.3609 5.62692 12.3582 5.64377C12.3546 5.67516 12.3609 5.71461 12.5183 5.82509C12.5676 5.90256 12.5187 5.90202 12.4528 5.87423C12.3868 5.84751 12.3141 5.78743 12.3141 5.78743ZM18.0326 6.59518C18.0324 6.59608 18.0322 6.59715 18.0322 6.59715C17.9858 6.59321 17.946 6.5898 17.9207 6.58765C17.9441 6.58926 17.9765 6.59141 18.0326 6.59518ZM18.2717 6.70494C18.2624 6.69202 18.2502 6.67893 18.234 6.66853C18.2198 6.6558 18.2023 6.64486 18.1825 6.63661C18.1916 6.60128 18.2184 6.57491 18.2464 6.59088C18.2194 6.60217 18.2689 6.65598 18.2717 6.70494ZM17.6372 5.83352C17.7107 5.82921 17.7314 5.85199 17.7381 5.87387C17.7042 5.871 17.6642 5.86903 17.6115 5.86885C17.6088 5.87225 17.6039 5.87602 17.6012 5.87997C17.6111 5.86149 17.6216 5.84481 17.6372 5.83352Z" fill="#F7BC06"/>
<path d="M17.4888 5.94693C17.4782 5.94764 17.4719 5.95105 17.4584 5.95016C17.4715 5.96092 17.4843 5.97042 17.4974 5.97849C17.5077 5.96899 17.5182 5.9593 17.5275 5.95069C17.5144 5.94926 17.5008 5.948 17.4888 5.94693ZM4.66347 5.77853L4.65357 5.77763C4.66213 5.7805 4.66994 5.78337 4.67565 5.78911C4.6688 5.78498 4.66823 5.78193 4.66347 5.77853ZM14.3499 10.7149L14.3752 10.7237C14.3765 10.7018 14.3779 10.6794 14.3811 10.6573C14.3695 10.676 14.3598 10.6954 14.3499 10.7149ZM7.24214 5.48997C7.25375 5.49015 7.26822 5.4853 7.2884 5.46916C7.28116 5.46737 7.26346 5.47813 7.24214 5.48997ZM7.76187 4.56582L7.86391 4.4523C7.81517 4.49928 7.78452 4.53569 7.76187 4.56582ZM8.17803 3.8845C8.16585 3.86782 8.15462 3.85939 8.14415 3.85168L8.14262 3.85276L8.17803 3.8845ZM4.7084 9.99251C4.71677 9.99951 4.72572 10.0058 4.73486 10.0104C4.8032 10.0458 4.76075 10.0176 4.7084 9.99251ZM1.71261 7.57051C1.75602 7.58485 1.79885 7.5992 1.83864 7.61965C1.79409 7.56799 1.75659 7.53069 1.71261 7.57051ZM5.06935 14.2286C5.06935 14.2286 5.0684 14.2284 5.06764 14.2278C5.06612 14.2366 5.06459 14.2443 5.06307 14.2531L5.06935 14.2286ZM1.96848 7.74142C1.93307 7.68098 1.88795 7.64547 1.83864 7.61965C1.87481 7.66233 1.91555 7.71434 1.96848 7.74142ZM9.7833 1.13681L9.80424 1.1343C9.80196 1.12802 9.80138 1.12246 9.80177 1.1178L9.7833 1.13681ZM9.80177 1.1178C9.80786 1.11045 9.81566 1.10704 9.8229 1.10112C9.81129 1.10292 9.80138 1.10525 9.80177 1.1178ZM9.87278 1.06848C9.85431 1.07619 9.83813 1.09036 9.82271 1.1013C9.84098 1.09807 9.8625 1.0961 9.87278 1.06848ZM9.28641 1.76666L9.31573 1.79356C9.31154 1.78441 9.3024 1.77545 9.28641 1.76666ZM9.14839 2.05432C9.1916 1.99048 9.31135 1.91946 9.33896 1.81526L9.31573 1.79356C9.3441 1.86189 9.12326 1.96286 9.14839 2.05432ZM8.09941 3.03532L8.25152 2.81114C8.19269 2.83535 8.11426 2.86674 8.16185 2.75465C7.89456 3.00214 8.27703 2.73169 8.09941 3.03532ZM7.6604 3.74551C7.70989 3.61011 7.60576 3.72202 7.58824 3.70552C7.57987 3.802 7.57815 3.82568 7.6604 3.74551ZM2.7079 5.96486L2.70886 5.87196C2.59596 5.90084 2.71324 5.90729 2.7079 5.96486ZM1.66197 6.60296C1.693 6.61444 1.71756 6.62018 1.74459 6.63703C1.74726 6.60798 1.75183 6.57839 1.75868 6.54808L1.7069 6.57229L1.66197 6.60296ZM0.719408 6.83126C0.717885 6.80508 0.717504 6.77871 0.72017 6.75271C0.709128 6.85188 0.713506 6.95124 0.73064 7.04773C0.719789 6.97635 0.714458 6.90389 0.719408 6.83126ZM3.93584 15.2151L4.05997 15.2017C4.05197 15.1251 3.92194 15.0883 3.93584 15.2151ZM7.53551 15.6622C7.60728 15.6904 7.73883 15.6663 7.78148 15.5826C7.68667 15.6206 7.57454 15.6263 7.53551 15.6622ZM15.361 11.9375L15.416 12.0162L15.3538 11.8611L15.361 11.9375Z" fill="#F7BC06"/>
<path d="M10.2529 2.27813L12.1013 5.80614C12.1879 5.97167 12.3554 6.08627 12.5492 6.11281L16.6822 6.67846C17.1703 6.74535 17.365 7.31028 17.0119 7.63452L14.0214 10.3808C13.8811 10.5095 13.8172 10.6952 13.8503 10.877L14.5562 14.7546C14.6396 15.2124 14.1294 15.5616 13.6928 15.3455L9.99627 13.5148C9.82284 13.4289 9.6159 13.4289 9.44246 13.5148L5.7459 15.3455C5.30936 15.5618 4.79915 15.2124 4.88253 14.7546L5.58845 10.877C5.62158 10.6952 5.55761 10.5097 5.4173 10.3808L2.42666 7.6347C2.07351 7.31045 2.26845 6.74535 2.75639 6.67863L6.88931 6.11299C7.08311 6.08645 7.25064 5.97185 7.33727 5.80632L9.18565 2.27831C9.40401 1.86152 10.0347 1.86152 10.2529 2.27813Z" fill="#F7BC06"/>
<path d="M10.1561 2.3231C10.1805 2.3405 10.2024 2.31127 10.1631 2.26141C10.1407 2.2571 10.1176 2.25513 10.0938 2.25549C10.1182 2.27432 10.134 2.30051 10.1561 2.3231ZM9.877 1.99365C9.78295 1.99616 9.6969 2.0419 9.74297 2.08942C9.81836 2.04584 9.83054 2.06916 9.93049 2.04028C9.99846 2.06108 10.028 2.10807 10.0066 2.11794C10.0358 2.11847 10.078 2.18268 10.1249 2.18788C10.1003 2.09911 9.98818 2.02109 9.86291 2.02504C9.84025 2.00979 9.86805 2.00083 9.877 1.99365ZM5.20246 6.27202L5.24967 6.27166C5.23654 6.27005 5.22035 6.27041 5.20246 6.27202ZM2.85301 8.16389C2.82749 8.14219 2.8136 8.13646 2.80884 8.13861C2.83416 8.15708 2.85529 8.17214 2.85301 8.16389ZM3.36246 8.70945C3.35161 8.69761 3.34247 8.68775 3.33257 8.67717C3.34152 8.69188 3.35199 8.70515 3.36246 8.70945ZM5.20246 6.27202L5.081 6.27256C5.0751 6.29013 5.14382 6.27633 5.20246 6.27202ZM9.23047 2.48648C9.23923 2.46406 9.24399 2.44434 9.24666 2.42533L9.22457 2.47967C9.22667 2.48182 9.22857 2.48361 9.23047 2.48648ZM7.08625 5.91908L7.10928 5.90204C7.11176 5.89218 7.1129 5.88213 7.11271 5.87191C7.10491 5.88769 7.09634 5.90365 7.08625 5.91908ZM7.77218 4.70583C7.75524 4.73417 7.79065 4.76322 7.80283 4.78277C7.79464 4.75856 7.79788 4.73327 7.80816 4.70619C7.80055 4.70207 7.78912 4.70153 7.77218 4.70583ZM8.91349 2.69811L8.92682 2.65919C8.92339 2.66941 8.91768 2.68609 8.91349 2.69811ZM6.08029 6.10111C6.07686 6.09519 6.07058 6.09035 6.0643 6.08784C6.06506 6.09304 6.07134 6.09734 6.08029 6.10111ZM10.8426 3.8597C10.846 3.85934 10.8472 3.85701 10.8498 3.85629C10.8418 3.85055 10.8376 3.84966 10.8426 3.8597ZM10.2635 2.27325L10.2764 2.29297C10.2854 2.29154 10.2941 2.29028 10.3017 2.28688L10.2635 2.27325ZM4.32939 9.67431C4.32767 9.67216 4.3271 9.67162 4.32558 9.66964C4.2955 9.64884 4.31111 9.66193 4.32939 9.67431ZM10.6073 14.0181C10.4967 13.92 10.8424 14.0789 10.6686 13.9446C10.6783 13.9685 10.458 13.9161 10.6073 14.0181ZM9.20763 2.51733L9.1804 2.57024C9.1943 2.54692 9.20268 2.53078 9.20763 2.51733Z" fill="#F7BC06"/>
<path d="M10.6685 13.9447L10.6686 13.9443L10.6506 13.9307C10.658 13.9364 10.6622 13.9396 10.6685 13.9447ZM5.16558 12.113C5.17453 12.1082 5.18291 12.0971 5.1909 12.0856C5.18614 12.0858 5.17929 12.0917 5.16558 12.113ZM4.98625 10.1559L5.0247 10.1993C5.01062 10.181 4.99786 10.1674 4.98625 10.1559ZM5.01709 13.2879C5.00814 13.3175 5.00014 13.3268 4.99862 13.369C5.00167 13.3656 5.00395 13.362 5.00643 13.3573C5.00281 13.3413 5.00357 13.3211 5.01709 13.2879ZM4.79663 14.5001C4.8012 14.4942 4.80539 14.4861 4.80977 14.4791C4.81129 14.4669 4.81281 14.4527 4.81434 14.4404L4.79663 14.5001ZM13.4935 6.42505C13.467 6.40926 13.4514 6.39366 13.4398 6.3786C13.4548 6.4116 13.2635 6.39635 13.4935 6.42505ZM9.20712 2.47649C9.21416 2.48778 9.21416 2.49944 9.2075 2.51738C9.2134 2.50428 9.21892 2.49191 9.22444 2.47971C9.22025 2.4738 9.21492 2.47039 9.20712 2.47649ZM5.36262 13.3944L5.32093 13.586C5.33502 13.5329 5.35025 13.4631 5.36262 13.3944ZM13.6835 10.9956L13.67 10.9522C13.672 10.9694 13.6762 10.9848 13.6835 10.9956ZM5.22346 14.1586C5.20137 14.1904 5.18557 14.2253 5.17263 14.2621C5.17472 14.2707 5.17586 14.2802 5.18024 14.2863L5.22346 14.1586Z" fill="#F7BC06"/>
<path d="M11.97 6.06292C12.062 6.16569 12.1041 6.16856 12.1182 6.15887C12.134 6.14757 12.1328 6.1187 12.165 6.12157C12.291 6.19904 12.3234 6.21142 12.3249 6.23258C12.3281 6.25087 12.3032 6.26612 12.3504 6.29804C12.4005 6.31095 12.4492 6.31687 12.4951 6.31705C12.5406 6.31741 12.5644 6.31203 12.5979 6.30952C12.66 6.30324 12.7169 6.29858 12.7711 6.30701C12.7778 6.31723 12.7984 6.32351 12.7719 6.33176C12.933 6.30844 13.2298 6.3922 13.4179 6.36099C13.4304 6.3678 13.4365 6.37336 13.4392 6.37803C13.4144 6.3461 13.4142 6.31705 13.4234 6.2975C13.5111 6.30862 13.5915 6.28441 13.6189 6.32548C13.5654 6.31705 13.5586 6.33122 13.5317 6.33911L13.6259 6.33588C13.7006 6.39973 13.4976 6.33696 13.4917 6.3757C13.6735 6.38305 13.889 6.36816 14.024 6.40188C14.0448 6.45712 13.7004 6.37516 13.8765 6.446L13.6671 6.39722C13.8169 6.50052 13.5389 6.3739 13.6747 6.48097C13.9519 6.53405 13.9915 6.49765 14.2679 6.55073C14.3351 6.53083 14.2536 6.50572 14.3208 6.48563C14.7252 6.48868 14.6129 6.65744 14.9148 6.62893C14.9955 6.60507 15.0347 6.5441 15.2369 6.60687L15.1572 6.65529C15.4269 6.69797 15.3245 6.59288 15.6021 6.67089C15.5482 6.68685 15.3864 6.66103 15.4264 6.67358C15.6028 6.7446 15.5613 6.65834 15.7024 6.67771L15.7237 6.73312C16.0131 6.76451 16.3362 6.77078 16.6568 6.80504C16.6368 6.81795 16.5797 6.82656 16.6518 6.85239C16.7984 6.85741 16.9355 6.95658 16.9787 7.09539C17.0257 7.23402 16.9726 7.37499 16.881 7.45103C16.8753 7.46735 16.8738 7.48223 16.8639 7.50268L16.8268 7.56796C16.8014 7.59055 16.7655 7.59593 16.786 7.56491C16.664 7.65332 16.8014 7.59055 16.7619 7.65135C16.7019 7.71071 16.6604 7.70838 16.6899 7.66247C16.5248 7.8671 16.2002 8.2265 15.9611 8.37912L15.991 8.33321C15.8189 8.46574 15.8802 8.5633 15.7022 8.6684L15.7245 8.63683C15.366 8.93884 15.0163 9.31743 14.7037 9.50987C14.7016 9.60205 14.3418 9.80184 14.3865 9.88684C14.1569 10.0353 14.2013 9.97203 13.9024 10.2046C13.8685 10.2321 13.8329 10.2857 13.8156 10.3341C13.7977 10.3849 13.7788 10.438 13.7539 10.5088L13.7063 10.4939C13.6924 10.5669 13.6916 10.6397 13.7015 10.7086C13.6772 10.7423 13.6568 10.7794 13.6383 10.8191C13.6452 10.8704 13.6596 10.92 13.6695 10.9516C13.6644 10.9127 13.6739 10.8375 13.6903 10.847C13.7027 10.9069 13.7131 10.9469 13.7189 10.9971C13.7249 11.0454 13.7278 11.094 13.7284 11.1374C13.7293 11.2244 13.7204 11.2911 13.708 11.2952L13.8245 11.6991C13.803 11.6932 13.7838 11.6256 13.7611 11.5732C13.8514 11.7843 13.7164 11.6214 13.7992 11.8148C13.8055 11.7861 13.8312 11.8246 13.842 11.8275C13.8304 11.9324 13.8717 12.1604 13.9149 12.327L13.8755 12.3006C13.9224 12.6066 14.0088 12.94 14.0703 13.2818C14.0638 13.1566 14.1278 13.1752 14.1518 13.2746L14.107 13.323C14.151 13.3826 14.1076 13.2152 14.1712 13.3417C14.1883 13.4703 14.1276 13.4371 14.0973 13.3664L14.1436 13.5187C14.1297 13.5303 14.1148 13.4952 14.0933 13.4889C14.1373 13.5474 14.0899 13.7653 14.1628 13.8481L14.1489 13.8594C14.2106 14.2011 14.2569 14.3532 14.3102 14.6311C14.3541 14.6254 14.3703 14.7486 14.4132 14.8078C14.417 14.9685 14.302 15.1159 14.1405 15.1891C14.029 15.252 14.1192 15.2368 14.0671 15.2787C14.0568 15.2597 14.0048 15.2617 13.9688 15.252C13.9325 15.2454 13.9136 15.2341 13.9597 15.2248C13.8487 15.2212 13.8049 15.1968 13.6901 15.146C13.5883 15.1014 13.4754 15.0549 13.2894 14.9807C13.3202 15.014 13.3602 15.0418 13.3311 15.0424C13.2631 15.016 13.1919 14.9549 13.2105 14.9428L13.2296 14.9477C12.8003 14.8013 12.3622 14.389 12.0032 14.3035L12.023 14.3087L11.6713 14.1826C11.5227 14.1014 11.777 14.2018 11.6765 14.1245C11.2877 14.0058 11.1179 13.8372 10.8026 13.7301C10.7175 13.6227 10.515 13.5246 10.2997 13.4263L10.1377 13.3524L10.0975 13.3338L10.0428 13.3101C10.0059 13.2958 9.9686 13.283 9.93109 13.2737C9.78069 13.2341 9.6341 13.2359 9.51169 13.2466L9.54539 13.2671C9.43878 13.3191 9.39499 13.2956 9.31884 13.3239C9.33045 13.3401 9.44658 13.2936 9.38299 13.3376C8.71172 13.705 7.97268 13.9905 7.26847 14.3112C7.01298 14.4296 7.19498 14.5065 6.84545 14.6064L6.91056 14.5171C6.67144 14.6697 6.41139 14.7979 6.15209 14.9245C6.02283 14.9886 5.89413 15.0526 5.76639 15.1159L5.67215 15.1654C5.63807 15.1841 5.62513 15.1871 5.60114 15.2007C5.55678 15.2169 5.51166 15.2325 5.4633 15.2364C5.48615 15.2262 5.48558 15.211 5.52004 15.2065C5.48025 15.1971 5.41685 15.1919 5.35764 15.1823C5.29844 15.1736 5.24475 15.1563 5.23447 15.1684C5.1884 15.1308 5.24037 15.1385 5.22362 15.1064C5.20325 15.0757 5.16517 15.0513 5.13566 15.02C5.1052 14.99 5.08502 14.9541 5.09987 14.9317C5.10425 14.9244 5.11567 14.9482 5.12443 14.9583C5.10425 14.9412 5.09854 14.8881 5.09492 14.8462C5.09721 14.8055 5.09569 14.7662 5.07075 14.7895C5.12576 14.6012 5.11872 14.4127 5.17298 14.2617C5.14195 14.1518 5.25789 13.9303 5.19373 13.8865C5.2636 13.9122 5.31462 13.5526 5.3032 13.4231C5.31748 13.4681 5.34546 13.3191 5.36697 13.3725C5.39172 13.231 5.40181 13.0994 5.36012 13.118C5.49415 12.8716 5.38582 12.5834 5.52327 12.4547C5.56078 12.0285 5.60533 11.6358 5.65711 11.2552C5.72679 11.2805 5.58838 11.6738 5.66701 11.6699C5.68471 11.4884 5.68757 11.3433 5.69614 11.1998C5.70052 11.1281 5.70623 11.0565 5.71613 10.981C5.7245 10.9138 5.74849 10.8076 5.73574 10.6962C5.72717 10.5786 5.78066 10.7574 5.78523 10.8022C5.78124 10.6824 5.7502 10.5674 5.69633 10.4656C5.66948 10.4146 5.63674 10.3668 5.59923 10.3234C5.58039 10.3017 5.56002 10.281 5.53946 10.2617L5.49072 10.2167C5.36145 10.0972 5.23504 9.98225 5.09835 9.8829C5.10387 9.87895 5.13547 9.89832 5.16441 9.91751C5.11434 9.87465 5.05932 9.80686 5.04162 9.8343L5.09511 9.8716C5.13871 9.97508 4.83239 9.7631 4.80593 9.77242C4.95462 9.78354 4.57995 9.53336 4.7947 9.5721C4.75853 9.54717 4.7075 9.52099 4.69932 9.54269C4.65667 9.4948 4.65058 9.47238 4.71626 9.49929C4.53026 9.35223 4.5672 9.43275 4.41052 9.28784C4.42232 9.27744 4.4583 9.30237 4.48781 9.30452C4.38634 9.25269 4.28449 9.2005 4.16131 9.0694C4.17616 9.07012 4.1695 9.04752 4.2089 9.08411C3.97741 8.87805 3.7619 8.78371 3.53287 8.53353C3.65548 8.55416 3.46377 8.43992 3.49289 8.38683L3.34573 8.27546L3.37924 8.34487C3.26216 8.236 3.12718 8.17019 3.03979 8.06366L3.14469 8.12714L2.91586 7.9322L3.02475 8.0624C2.88368 7.97399 2.98401 8.12589 2.83895 7.9704C2.87512 7.99551 2.72167 7.86172 2.68512 7.78119L2.68569 7.78137C2.61392 7.74084 2.53967 7.69941 2.46314 7.60939C2.45457 7.57567 2.52768 7.58087 2.52235 7.55863C2.47951 7.5511 2.41973 7.49927 2.38299 7.42718C2.34472 7.35705 2.3274 7.27689 2.30379 7.23331C2.31693 7.26236 2.34872 7.26111 2.35501 7.2525C2.34206 7.23564 2.32493 7.21717 2.31465 7.19744C2.33444 7.13485 2.34568 7.12965 2.36757 7.14346C2.39289 7.05899 2.37804 7.0676 2.35615 7.07172C2.33882 7.07836 2.3175 7.07531 2.38794 6.98026C2.38185 6.99747 2.39061 6.99281 2.37842 7.02742C2.43668 6.93094 2.51321 6.85059 2.61049 6.79751C2.65942 6.77132 2.71273 6.75482 2.7687 6.74442C2.83133 6.73492 2.89397 6.72738 2.95679 6.72362C3.03884 6.77043 2.74185 6.7672 2.83304 6.80378C3.18981 6.74442 3.56448 6.63413 3.91344 6.60005L3.84795 6.60256C3.88355 6.51576 4.11238 6.60687 4.28182 6.54499C4.23975 6.55683 4.23232 6.59718 4.2426 6.58678C4.4821 6.56723 4.72502 6.50052 5.08103 6.42609L5.03971 6.45281C5.1825 6.4521 5.40981 6.413 5.56249 6.4017C5.60418 6.37498 5.69119 6.36655 5.63407 6.34377C6.12106 6.39632 6.50734 6.16138 6.94825 6.19797C6.88657 6.20945 6.82984 6.23348 6.86639 6.22917C6.99147 6.2116 7.13711 6.15511 7.23706 6.0683C7.1887 6.05844 7.18089 6.08444 7.09465 6.09682C7.12911 6.05808 7.20545 5.9919 7.2618 5.9268C7.16338 6.05342 7.30997 5.97272 7.37241 5.91568C7.35547 5.91981 7.36004 5.89255 7.34652 5.89165C7.50263 5.75589 7.29645 5.83211 7.45237 5.63484L7.46399 5.65438C7.49711 5.56991 7.51234 5.48509 7.56279 5.40097C7.62048 5.38322 7.53614 5.49477 7.56527 5.51522C7.62676 5.39255 7.61724 5.241 7.71376 5.149C7.69758 5.20567 7.65874 5.2801 7.64256 5.33659C7.75108 5.23795 7.7467 5.21876 7.80057 5.13304L7.79486 5.14129L7.92337 4.94509L7.88358 4.99172C7.86188 4.79247 8.02731 4.67339 8.06824 4.43755C8.02674 4.66603 8.08728 4.48741 8.12345 4.5231C8.16305 4.47647 8.21845 4.4033 8.21902 4.43163C8.23425 4.31829 8.33173 4.28296 8.35134 4.12209C8.36866 4.12263 8.40693 4.01915 8.43111 4.05753C8.48593 3.92643 8.39074 4.07582 8.37856 4.05699C8.43168 3.84035 8.67631 3.62801 8.75608 3.31792C8.85489 3.06434 8.83033 2.99762 8.92361 2.76304C8.98587 2.69812 8.94303 2.84877 8.94303 2.84877C9.02775 2.73686 9.07173 2.64342 9.11551 2.52129C9.1157 2.55034 9.13874 2.53115 9.17301 2.50371C9.21756 2.40992 9.15359 2.41817 9.23812 2.30662C9.24307 2.33477 9.2543 2.37333 9.24706 2.42498C9.26629 2.37118 9.28552 2.3172 9.30494 2.26268C9.32607 2.21462 9.35596 2.16745 9.3988 2.12853C9.43858 2.13194 9.36967 2.19865 9.36358 2.23829C9.39651 2.19256 9.45134 2.13893 9.51169 2.10558C9.57014 2.06917 9.62839 2.04783 9.64629 2.02344C9.61754 2.02505 9.5867 2.02236 9.55719 2.02738C9.60574 2.01304 9.58955 2.05357 9.56043 2.0715C9.47228 2.13355 9.41574 2.12656 9.39727 2.11795C9.41879 2.10038 9.43973 2.08065 9.46505 2.06702C9.40317 2.04496 9.31827 2.10235 9.26724 2.18861C9.2166 2.27254 9.19566 2.38589 9.14902 2.46516L9.1237 2.36993L9.08753 2.55841C9.05345 2.58621 9.007 2.59446 9.03955 2.51089C8.94931 2.61239 9.00757 2.62298 8.92228 2.70655C8.91143 2.71498 8.91105 2.7087 8.9139 2.69758L8.87278 2.81864C8.87164 2.79066 8.82024 2.81756 8.86517 2.75228C8.72429 2.93844 8.73971 3.09967 8.65385 3.15454L8.65899 3.13589C8.53239 3.42607 8.68926 3.18378 8.631 3.41853L8.4471 3.50928L8.47699 3.55752C8.46023 3.58568 8.42692 3.64146 8.41473 3.62263C8.38865 3.74458 8.44367 3.6133 8.43967 3.68916C8.32621 3.80968 8.25729 4.08228 8.16991 4.08084C8.17752 4.14666 8.26586 3.95961 8.21141 4.1194C8.11298 4.1264 8.13431 4.29749 8.03264 4.4085C8.0138 4.35111 8.09775 4.2401 7.99609 4.35129C8.02236 4.45907 7.8516 4.5925 7.80819 4.70585C7.85845 4.73544 7.70786 4.94957 7.63114 5.13806C7.61933 5.11833 7.42439 5.46374 7.31759 5.62246L7.3113 5.61332C7.32958 5.64201 7.3134 5.69832 7.28598 5.76396C7.26238 5.82673 7.2163 5.88627 7.16985 5.93398C7.1491 5.90546 7.159 5.88215 7.18622 5.82494C7.16395 5.85327 7.13825 5.8791 7.10969 5.9017C7.10093 5.93039 7.07904 5.96267 7.01051 5.99908C7.01374 5.98258 7.01622 5.96608 7.01755 5.9494C6.95092 5.98383 6.89152 6.00589 6.78415 6.02777C6.68591 6.04983 6.58044 6.0692 6.45955 6.07153C6.45213 6.11206 6.66516 6.15349 6.41786 6.21375C6.40529 6.19402 6.39044 6.15959 6.45498 6.14201C6.43385 6.14775 6.38093 6.16999 6.33619 6.16694L6.431 6.11798C6.32039 6.11726 6.37902 6.15511 6.29202 6.16371C6.28916 6.13358 6.22482 6.15116 6.23357 6.12569C6.25528 6.11978 6.31087 6.12767 6.34228 6.11153C6.24385 6.1196 6.12334 6.11798 6.08089 6.10059C6.09193 6.11637 6.08717 6.14076 6.01635 6.15439C5.83207 6.18183 5.94763 6.12713 5.83759 6.12659C5.79609 6.15349 5.675 6.14811 5.67881 6.19313C5.62475 6.2003 5.61161 6.18075 5.58876 6.17161C5.49624 6.20442 5.14347 6.23832 5.25846 6.27114L5.2834 6.27096C5.27883 6.27222 5.27369 6.27347 5.26817 6.27508C4.96185 6.36242 4.61384 6.33875 4.30619 6.40044L4.30447 6.38538C4.12171 6.42788 3.89326 6.45192 3.7659 6.50231C3.71107 6.50984 3.63225 6.49281 3.653 6.47182C3.51288 6.50249 3.49975 6.52132 3.29109 6.52473C3.42969 6.47918 3.23836 6.50841 3.43426 6.48563C3.24807 6.49801 3.20276 6.47971 3.01124 6.54768C3.07273 6.50016 2.86522 6.51845 2.77936 6.54195L2.91262 6.55163C2.81553 6.57154 2.73195 6.57441 2.62439 6.60005C2.63638 6.57674 2.65123 6.55844 2.66665 6.5371C2.54576 6.54858 2.43059 6.59808 2.34872 6.67269C2.26591 6.74622 2.21013 6.83499 2.17605 6.92376C2.11189 7.10615 2.11665 7.26828 2.11913 7.4478C2.15644 7.49981 2.1414 7.43829 2.13245 7.37804C2.12846 7.31562 2.13017 7.25572 2.15834 7.30325C2.16272 7.39884 2.18271 7.49855 2.21108 7.58356C2.24002 7.66821 2.28285 7.73188 2.30494 7.75609C2.45591 7.93399 2.52025 7.85006 2.68588 8.02904C2.67636 7.99497 2.69045 7.94027 2.83761 8.05146C2.95812 8.17162 2.93547 8.24766 2.84561 8.18525C2.81439 8.15871 2.80411 8.14131 2.81001 8.13808C2.76451 8.10562 2.70549 8.06222 2.74071 8.12194L2.77041 8.12392C2.81896 8.1944 2.99315 8.3515 2.93052 8.33572C3.03827 8.4105 2.99315 8.35168 2.92976 8.2803C3.0714 8.44691 3.18086 8.51183 3.33336 8.67665C3.31432 8.64526 3.30594 8.60778 3.33202 8.63199C3.55857 8.87141 3.46453 8.7057 3.6353 8.85133C3.7084 8.95714 3.55286 8.86782 3.73582 9.00341C3.8232 9.10976 3.72154 9.05757 3.67033 9.0312C3.84738 9.14491 3.93552 9.30685 4.01719 9.39078L3.92676 9.32819C3.98083 9.36568 4.01967 9.40172 4.05927 9.43813L4.0408 9.37034C4.08287 9.41769 4.12228 9.45427 4.11029 9.46413C4.17597 9.49139 4.11809 9.38702 4.23784 9.45158C4.28639 9.52206 4.44212 9.61155 4.42803 9.66589C4.24412 9.47436 4.41375 9.72041 4.24222 9.57371C4.27839 9.599 4.31723 9.63487 4.35949 9.68257C4.36254 9.6928 4.34541 9.68365 4.33075 9.67379C4.48629 9.8768 4.45735 9.71396 4.65077 9.89312C4.60603 9.88989 4.65763 9.97131 4.69361 9.99624C4.61574 9.92397 4.68961 9.92953 4.77699 9.98046C4.88589 10.1099 4.92396 10.0936 4.98736 10.1551L4.92035 10.0796C4.96566 10.0834 5.02525 10.1431 5.11853 10.2168C5.11034 10.2387 5.02886 10.1548 5.05304 10.1899C5.11891 10.2172 5.16422 10.276 5.21296 10.3406C5.25846 10.4046 5.32338 10.4788 5.37478 10.5165C5.39648 10.5786 5.33594 10.5506 5.35212 10.5995C5.40238 10.6508 5.40105 10.6948 5.39667 10.7312C5.39363 10.7495 5.39058 10.7679 5.38677 10.7902C5.38354 10.8153 5.38354 10.8278 5.37992 10.8874C5.42885 10.8343 5.42142 10.8225 5.43227 10.9731C5.44674 10.8478 5.45436 10.7708 5.42218 10.6907C5.4536 10.7382 5.47435 10.795 5.48291 10.8571C5.49986 10.7712 5.45778 10.6826 5.44598 10.637C5.50119 10.7082 5.4871 10.7079 5.50938 10.6577C5.49681 10.7238 5.50957 10.7782 5.51204 10.8426C5.51223 10.9098 5.50976 10.991 5.47625 11.0671L5.38258 11.0468C5.29634 11.2823 5.3527 11.4851 5.27159 11.7959L5.30643 11.6975C5.33632 11.7457 5.27635 11.8926 5.27293 11.997C5.24304 11.9824 5.22 12.0441 5.1924 12.0845C5.21677 12.0831 5.14842 12.3144 5.2061 12.3531L5.1389 12.4869C5.0757 12.7382 5.17602 12.7915 5.12082 13.0339C5.09987 12.9548 5.05723 13.0623 5.06256 12.8946C5.04733 12.976 5.02829 13.0485 5.04999 13.0533C5.02163 13.0978 5.05133 13.2863 5.00773 13.3564C5.01535 13.393 5.04638 13.4096 5.02715 13.5008C5.01896 13.5097 5.01154 13.4979 5.01154 13.4979C5.02715 13.5008 5.00678 13.6446 5.05628 13.5703C4.91197 13.8056 4.93558 14.2735 4.81126 14.4785C4.80003 14.5698 4.78784 14.6704 4.77566 14.7689C4.76348 14.8822 4.78404 14.9963 4.82421 15.0842C4.81088 15.0757 4.80898 15.089 4.79927 15.053C4.83296 15.1866 4.88932 15.2083 4.93177 15.2309C4.98013 15.2515 5.01953 15.2771 5.13224 15.3664C5.18421 15.4253 5.14823 15.4122 5.10444 15.3898C5.05989 15.3695 5.01934 15.3306 5.05133 15.3691C5.03572 15.4206 5.12519 15.4787 5.24627 15.5067C5.36869 15.5368 5.51128 15.5271 5.62817 15.5309C5.61104 15.5381 5.59257 15.5415 5.5743 15.5458C5.62018 15.5513 5.66834 15.5366 5.71955 15.5218C5.76696 15.5009 5.82293 15.4724 5.85739 15.4464C5.93677 15.3926 6.02435 15.3311 6.12772 15.2839C6.12772 15.2839 6.1222 15.2967 6.13401 15.2978C6.24785 15.1841 6.50258 15.039 6.69124 14.9297C6.64955 14.9943 6.61262 14.992 6.66916 15.0085C6.75407 14.9601 6.61224 14.9651 6.78167 14.8688C6.84907 14.8594 6.98442 14.8134 7.02193 14.8424L6.8582 14.9262C6.96957 14.9326 7.07086 14.8187 7.16243 14.7841L7.163 14.8107C7.41201 14.6787 7.38574 14.6238 7.65969 14.493L7.62276 14.4911C7.74175 14.3648 7.76383 14.459 7.89005 14.3465L7.96468 14.3777C8.05549 14.3164 8.27899 14.1561 8.44919 14.059C8.37171 14.148 8.17752 14.2699 8.0633 14.3566C8.16058 14.3089 8.39113 14.1892 8.42711 14.1378C8.39094 14.1623 8.34886 14.1998 8.30565 14.2108C8.40141 14.1098 8.54666 14.0115 8.74066 13.9166C8.76408 14.0372 9.25963 13.693 9.44487 13.7038C9.53492 13.6458 9.58061 13.6184 9.65504 13.6075C9.72491 13.5969 9.79821 13.6066 9.86351 13.6335C9.87988 13.6401 9.89568 13.648 9.9111 13.6566L9.9745 13.6919C10.0187 13.7163 10.0632 13.7411 10.1085 13.7664C10.1995 13.816 10.2941 13.8659 10.3947 13.9136C10.2981 13.7629 10.5123 13.969 10.534 13.8741C10.6298 13.9149 10.6644 13.9339 10.6698 13.9432L10.9237 14.132C10.977 14.1892 10.8251 14.1066 10.8234 14.1293C11.0233 14.2364 10.8891 14.2066 11.0115 14.2952C11.0004 14.252 11.1059 14.2879 11.2156 14.3566L11.0736 14.2375C11.3823 14.3342 11.2805 14.4287 11.5914 14.5269L11.4863 14.5081C11.6418 14.5655 12.0283 14.7773 12.2095 14.7821C12.2303 14.8046 12.252 14.8442 12.1838 14.8182C12.5296 15.0022 13.0055 15.1349 13.2557 15.311L13.2178 15.318C13.2865 15.3446 13.3531 15.3365 13.4238 15.3975C13.4148 15.4037 13.3861 15.4046 13.4158 15.4208C13.435 15.4258 13.4835 15.4385 13.5372 15.4568C13.5646 15.4662 13.5911 15.4762 13.6199 15.4884C13.6543 15.5017 13.6869 15.5157 13.7145 15.5302L13.6037 15.5124C13.7141 15.5738 13.8314 15.5989 13.9378 15.6003C14.0448 15.5974 14.1405 15.5747 14.2226 15.5354C14.3867 15.457 14.5036 15.3356 14.5934 15.1745C14.6228 15.1923 14.6966 15.125 14.7398 15.0103C14.7629 14.9536 14.7734 14.8874 14.7775 14.8238C14.7766 14.792 14.7754 14.7612 14.7745 14.7321C14.7724 14.7093 14.7705 14.688 14.7688 14.669L14.7796 14.6722C14.7121 14.2522 14.5919 13.9706 14.4937 13.5874C14.5262 13.3343 14.3774 12.7671 14.3498 12.3734C14.3479 12.4346 14.2932 12.3727 14.2736 12.3051C14.2713 12.212 14.1792 12.0621 14.2462 12.066L14.251 12.0987C14.3018 12.0201 14.251 11.8363 14.2262 11.6903L14.1373 11.6799C14.164 11.4796 14.1074 11.2317 14.053 11.0059C14.0398 10.9502 14.0269 10.8956 14.0145 10.8438C14.0059 10.8058 14.0044 10.7681 14.0094 10.7342C14.0195 10.6661 14.0551 10.6148 14.0979 10.5983C14.1047 10.5665 14.1232 10.5344 14.1466 10.5054C14.1796 10.4677 14.2175 10.4263 14.2445 10.3872L14.2729 10.4216C14.4775 10.2491 14.5795 10.163 14.8147 9.93257L14.788 10.0002C14.927 9.87644 14.8685 9.75198 14.9929 9.63415L15.0787 9.64545C15.3169 9.4254 15.6007 9.2439 15.7934 8.98511C15.7964 8.99552 15.8033 9.01524 15.7666 9.05273C15.8802 8.95068 16.2339 8.68454 16.1275 8.65853C16.173 8.69727 16.3782 8.43615 16.4885 8.29949L16.4999 8.34845C16.5684 8.20946 16.561 8.19565 16.7019 8.04519C16.7421 8.01613 16.7588 8.04052 16.7028 8.07675C16.8395 7.98242 16.7666 7.96197 16.929 7.8445L16.8949 7.91373C17.021 7.80254 17.0004 7.8011 17.0448 7.71591C17.0764 7.67664 17.1445 7.61028 17.1934 7.54931C17.2427 7.48654 17.2806 7.42574 17.3035 7.41588C17.2907 7.38234 17.2795 7.27671 17.2793 7.16821C17.2921 7.15171 17.3088 7.19134 17.3128 7.2125C17.3208 7.04661 17.2475 6.93094 17.1757 6.85023C17.1009 6.76774 17.0221 6.71375 16.929 6.64363C16.9315 6.62928 16.9214 6.61476 16.9048 6.6031C17.1727 6.71931 17.2559 6.9451 17.245 6.92071C17.2633 6.91246 17.2475 6.85812 17.2387 6.82226C17.2279 6.78872 17.2363 6.76397 17.3143 6.83176C17.2486 6.75464 17.1392 6.66802 17.0124 6.61476C16.949 6.58768 16.8833 6.56885 16.8199 6.55342C16.7558 6.54212 16.6926 6.53083 16.6531 6.52204C16.6451 6.51702 16.6372 6.51217 16.6316 6.50536L16.6509 6.50357C16.6103 6.49406 16.5728 6.49263 16.537 6.49442C16.481 6.48025 16.4454 6.47057 16.3908 6.4625C16.3746 6.42753 16.1833 6.41641 16.0923 6.40224C16.0932 6.44582 15.9746 6.42268 16.0814 6.47308C16.0674 6.46806 16.0995 6.47039 16.1604 6.47702C16.1743 6.47756 16.1907 6.47918 16.2 6.47792L16.1932 6.48079C16.2534 6.48832 16.3318 6.49801 16.4207 6.50913C16.3451 6.52078 16.2669 6.52867 16.1696 6.49119C16.1184 6.51217 16.0626 6.53316 16.0314 6.5423C15.9154 6.4659 15.6794 6.4008 15.6516 6.35973C15.3689 6.34539 14.9919 6.28549 14.8042 6.34144C14.7233 6.3409 14.7164 6.30611 14.6888 6.28943C14.7358 6.28764 14.7901 6.29643 14.8168 6.28836C14.6549 6.2871 14.3456 6.23204 14.2991 6.28262C14.103 6.23007 14.4194 6.24657 14.1434 6.21823L14.1832 6.20622C13.6566 6.04302 13.2827 6.22846 12.7013 6.0319C12.7416 6.04463 12.762 6.05073 12.7691 6.06113C12.687 6.04499 12.6048 6.02867 12.5219 6.01235C12.4515 5.99442 12.3849 5.96357 12.3276 5.92053C12.2699 5.87749 12.2225 5.82404 12.1873 5.76073L12.0637 5.53889C11.899 5.24315 11.7383 4.9467 11.6262 4.64111C11.5562 4.47037 11.5126 4.46858 11.4341 4.38088L11.4594 4.32511L11.3193 4.17805C11.1554 3.95333 11.2076 3.70889 10.9768 3.43521L10.9679 3.48848C10.9159 3.37585 10.7678 3.14809 10.8116 3.1506C10.8004 3.14181 10.7619 3.1289 10.7549 3.07868L10.7762 3.06469L10.5951 2.81272C10.502 2.59554 10.7036 2.80303 10.5479 2.49528C10.4796 2.38571 10.3115 2.20278 10.3183 2.25264C10.3412 2.29909 10.3653 2.37656 10.3442 2.39055L10.2778 2.29209C10.2001 2.30482 10.0889 2.25712 10.1753 2.5342L10.3099 2.69274L10.3071 2.76537L10.2266 2.6167C10.2401 2.71587 10.2957 2.75712 10.3459 2.80859C10.3358 2.83101 10.3368 2.86168 10.3488 2.89988L10.5049 3.04443C10.4895 3.07797 10.4112 2.99063 10.4581 3.11455C10.531 3.18234 10.4763 3.00856 10.5671 3.13464C10.5809 3.23399 10.5428 3.2209 10.6214 3.30842C10.6113 3.33048 10.589 3.31452 10.5607 3.27865C10.6281 3.35774 10.6928 3.50964 10.7528 3.53887C10.7611 3.64522 10.9199 3.83425 10.8512 3.85541C10.8813 3.87621 10.9835 3.98848 11.029 4.06901C10.874 3.95548 11.1845 4.37658 11.0815 4.3755C11.2083 4.45369 11.321 4.76001 11.4617 4.93756C11.4505 4.92913 11.4282 4.91281 11.4227 4.89398C11.4747 5.0066 11.4705 5.04839 11.4947 5.12515C11.559 5.11277 11.6618 5.27813 11.7454 5.35417C11.761 5.51468 11.6355 5.30341 11.6049 5.37031C11.6475 5.34197 11.7738 5.58319 11.7882 5.51934C11.8082 5.63824 11.8183 5.61583 11.7989 5.69097C11.8796 5.67591 11.8613 5.78136 11.9499 5.84664C11.975 5.93613 11.9775 5.96662 11.9763 5.98366C11.9792 6.00177 11.9841 6.0267 12.0854 6.10615C12.1616 6.20604 11.966 6.07064 11.97 6.06292ZM16.6598 6.79123L16.6596 6.79213C16.6202 6.78782 16.5865 6.78406 16.565 6.78155C16.5848 6.78352 16.6122 6.78639 16.6598 6.79123ZM16.932 6.91802C16.9077 6.8913 16.8715 6.86207 16.8271 6.84144C16.8251 6.82333 16.843 6.81544 16.8719 6.83122C16.8513 6.83051 16.9117 6.87642 16.932 6.91802ZM16.2773 6.43721C16.339 6.43954 16.3581 6.45066 16.3651 6.46052C16.3362 6.45801 16.3025 6.45496 16.2581 6.45102C16.256 6.4521 16.2524 6.45407 16.2501 6.45532C16.257 6.44797 16.2648 6.44133 16.2773 6.43721Z" fill="#F7BC06"/>
<path d="M16.1595 6.4781C16.1505 6.47774 16.1454 6.47899 16.134 6.47774C16.146 6.48276 16.1574 6.4876 16.1688 6.49227C16.1768 6.48868 16.185 6.48509 16.1924 6.48186C16.1812 6.48061 16.1698 6.47917 16.1595 6.4781ZM5.25789 6.2715L5.2497 6.27168C5.25674 6.27239 5.26322 6.27329 5.2676 6.27544C5.26188 6.27401 5.26169 6.27275 5.25789 6.2715ZM13.6956 10.4909L13.7065 10.4944C13.7093 10.4803 13.712 10.4658 13.716 10.4516C13.7084 10.4643 13.7023 10.4776 13.6956 10.4909ZM7.37203 5.91604C7.37812 5.91461 7.3865 5.90923 7.39926 5.89596C7.39583 5.8956 7.38517 5.9051 7.37203 5.91604ZM7.80019 5.1334L7.87254 5.02992C7.83922 5.07385 7.81695 5.10685 7.80019 5.1334ZM8.1345 4.54336C8.13126 4.53242 8.12707 4.52776 8.12307 4.52346L8.12212 4.52453L8.1345 4.54336ZM5.16422 9.91787C5.17126 9.92396 5.17831 9.9297 5.18535 9.93455C5.23733 9.97077 5.20363 9.94441 5.16422 9.91787ZM2.68531 7.78191C2.71653 7.79984 2.74737 7.81742 2.77764 7.8384C2.73728 7.79662 2.70473 7.76559 2.68531 7.78191ZM5.36735 13.3734L5.36659 13.3729L5.36259 13.3944L5.36735 13.3734ZM2.88882 7.94152C2.85227 7.89615 2.81515 7.86459 2.77764 7.8384C2.81058 7.87266 2.84865 7.91373 2.88882 7.94152ZM9.56366 2.1262L9.58879 2.11992C9.58746 2.11741 9.58822 2.11472 9.58974 2.11239L9.56366 2.1262ZM9.58974 2.11239C9.59812 2.10701 9.60783 2.10486 9.61716 2.10109C9.60364 2.10324 9.59203 2.10593 9.58974 2.11239ZM9.6777 2.08154C9.65638 2.08495 9.63677 2.0941 9.61716 2.10109C9.63848 2.09697 9.66418 2.0932 9.6777 2.08154ZM9.07953 2.73865L9.08962 2.75461C9.08924 2.74816 9.086 2.74277 9.07953 2.73865ZM8.9575 2.98184C8.99101 2.92588 9.06468 2.85217 9.09743 2.7677L9.08962 2.75479C9.09191 2.8025 8.96112 2.91548 8.9575 2.98184ZM8.24682 3.90311L8.36447 3.70656C8.3302 3.73453 8.28451 3.77112 8.32887 3.6775C8.14839 3.91029 8.39189 3.64128 8.24682 3.90311ZM7.89557 4.51915C7.94507 4.40724 7.87196 4.50983 7.86606 4.49978C7.84436 4.57529 7.83941 4.59376 7.89557 4.51915ZM3.59646 6.46429L3.60331 6.42376C3.50603 6.44277 3.60464 6.439 3.59646 6.46429ZM2.64628 6.81562C2.67465 6.8158 2.69959 6.81078 2.727 6.8158L2.75537 6.77329C2.71634 6.78334 2.67998 6.79751 2.64628 6.81562ZM2.0702 7.13054C2.0702 7.11261 2.07096 7.09467 2.0742 7.0771C2.06354 7.14471 2.06354 7.21304 2.0721 7.28011C2.06677 7.23044 2.06468 7.1804 2.0702 7.13054ZM4.79603 14.278L4.85143 14.2583C4.85371 14.1948 4.79965 14.1726 4.79603 14.278ZM7.64066 14.533C7.68996 14.5357 7.79448 14.5017 7.84246 14.4511C7.76345 14.4866 7.67702 14.5081 7.64066 14.533ZM14.1664 11.4896L14.1965 11.5596L14.1577 11.4251L14.1664 11.4896Z" fill="#F7BC06"/>
</g>
<defs>
<clipPath id="clip0_1_704">
<rect width="17.89" height="16" fill="white" transform="translate(0.929932 0.800049)"/>
</clipPath>
</defs>
</svg>
