<svg width="14" height="15" viewBox="0 0 14 15" fill="none" xmlns="http://www.w3.org/2000/svg">
<path d="M10.075 0.640137H3.925C1.9 0.640137 0.25 2.29014 0.25 4.31514V10.4651C0.25 12.4901 1.9 14.1401 3.925 14.1401H10.075C12.1 14.1401 13.75 12.4901 13.75 10.4651V4.31514C13.75 2.29014 12.1 0.640137 10.075 0.640137ZM7 10.8401C5.05 10.8401 3.475 9.26514 3.475 7.39014C3.475 5.44014 5.05 3.86514 7 3.86514C8.875 3.86514 10.525 5.44014 10.525 7.39014C10.525 9.26514 8.875 10.8401 7 10.8401ZM10.9 4.61514C10.3 4.61514 9.775 4.09014 9.775 3.49014C9.775 2.89014 10.3 2.36514 10.9 2.36514C11.5 2.36514 12.025 2.89014 12.025 3.49014C12.025 4.09014 11.575 4.61514 10.9 4.61514Z" fill="white"/>
</svg>
