<svg width="14" height="10" viewBox="0 0 14 10" fill="none" xmlns="http://www.w3.org/2000/svg">
<path d="M12.9435 2.37115C12.7548 1.80511 12.3775 1.42775 11.8114 1.23907C10.868 0.956055 7.0001 0.956055 7.0001 0.956055C7.0001 0.956055 3.13217 0.956055 2.18878 1.23907C1.62274 1.42775 1.24538 1.80511 1.0567 2.37115C0.773682 3.31455 0.773682 5.29568 0.773682 5.29568C0.773682 5.29568 0.773682 7.27681 1.0567 8.31455C1.24538 8.88058 1.62274 9.25794 2.18878 9.44662C3.13217 9.72964 7.0001 9.72964 7.0001 9.72964C7.0001 9.72964 10.868 9.72964 11.8114 9.44662C12.3775 9.25794 12.7548 8.88058 12.9435 8.31455C13.2265 7.37115 13.2265 5.39002 13.2265 5.39002C13.2265 5.39002 13.2265 3.40889 12.9435 2.37115ZM5.77368 7.27681V3.59756L8.98123 5.48436L5.77368 7.27681Z" fill="white"/>
</svg>
